<svg id="Layer_1" data-name="Layer 1" xmlns="http://www.w3.org/2000/svg" viewBox="0 0 357.4 447.9"><defs><style>.cls-1{fill:#d3d3e5;}.cls-2{fill:#e2e2ed;}.cls-3{fill:#c2c2cc;}.cls-4{fill:#a07252;}.cls-5{fill:#191919;}.cls-6{fill:#b27e5b;}.cls-7{fill:#9e6e4d;}.cls-8{fill:#896045;}.cls-9{fill:#876249;}.cls-10{fill:#332016;}.cls-11{fill:#eadad0;}.cls-12{fill:#2d170f;}.cls-13{fill:#ededf4;}.cls-14{fill:#0c0c0c;}</style></defs><title>arab1</title><path class="cls-1" d="M124.5,131.2s-3.4,18.9-8,69.9c-3.6,39.2-2.7,179.4-2.7,179.4l104.4,28,2.7-313Z" transform="translate(-69.4 -48.3)"/><path class="cls-1" d="M379.8,199.8c-4.7-51.7-8-68.6-8-68.6L275.4,95.5l2.7,313,104.4-28S383.2,238.3,379.8,199.8Z" transform="translate(-69.4 -48.3)"/><path class="cls-2" d="M418.5,382.8c-8.5-27.3-81.2-49.3-170.8-49.3s-161.5,22-170,49.3c-2.6,8.5-5.5,22.2-8.3,37.4a248.09,248.09,0,0,0,357.4,0C424.1,405,421.2,391.2,418.5,382.8Z" transform="translate(-69.4 -48.3)"/><path class="cls-3" d="M248.1,300.9c-12.6,0-40.6,3.3-56.1,14.2v32.3c15.5-10.9,43.4-14.2,56.1-14.2s40.4,3.2,55.9,14V314.9C288.6,304.1,260.7,300.9,248.1,300.9Z" transform="translate(-69.4 -48.3)"/><path class="cls-4" d="M304.9,269.8H191.3c17.7,46.3,1.4,68.3,1.4,68.3v7.7H303.4v-7.7C303.5,338,287.2,316.1,304.9,269.8Z" transform="translate(-69.4 -48.3)"/><path class="cls-4" d="M161.4,178c-8.4,1.4-14.9,5.1-10.1,32.9S162,240,170.4,238.6Z" transform="translate(-69.4 -48.3)"/><path class="cls-4" d="M334.9,178l-9,60.6c8.4,1.4,14.3.1,19.1-27.7S343.3,179.5,334.9,178Z" transform="translate(-69.4 -48.3)"/><path class="cls-5" d="M248.1,63.3c-48.7,0-88.3,19.5-88.3,111.9,0,31.3,6.2,68.2,15.5,87.1,20.4,41.6,55.7,56.1,72.8,56.1s52.4-14.5,72.8-56.1c9.3-18.9,15.5-55.8,15.5-87.1C336.4,82.8,296.8,63.3,248.1,63.3Z" transform="translate(-69.4 -48.3)"/><path class="cls-6" d="M248.1,63.3c-46.7,0-84.6,20.3-84.6,108.9,0,30,5.9,65.4,14.8,83.5,11.5,23.4,27.8,30.7,42.7,38.6,10.5,5.6,20.3,15.2,27,15.2s16.7-9.6,27.4-15.3c14.8-8,31-15.3,42.4-38.5,8.9-18.1,14.8-53.5,14.8-83.5C332.7,83.6,294.8,63.3,248.1,63.3Z" transform="translate(-69.4 -48.3)"/><path class="cls-5" d="M248.1,251.1c-25,0-37.8,8.1-37.8,24,0,19.6,19.4,40.2,37.8,40.2s37.8-20.7,37.8-40.2C285.9,259.2,273.1,251.1,248.1,251.1Zm0,54.3c-14.8,0-31.8-14.3-31.8-30.3,0-4.5,0-18,31.8-18s31.8,13.5,31.8,18C279.9,291.1,262.9,305.4,248.1,305.4Z" transform="translate(-69.4 -48.3)"/><path class="cls-5" d="M253.1,290.7a9.72,9.72,0,0,0-1.5-2.5,13.58,13.58,0,0,0-3-2.5h-1a9.7,9.7,0,0,0-3,2.5,7.25,7.25,0,0,0-1.5,2.5,3.58,3.58,0,0,0,0,2.5,18.61,18.61,0,0,1,1,2.5,45.8,45.8,0,0,0,1.5,4.9,50.45,50.45,0,0,0,2,4.9h1a50.45,50.45,0,0,0,2-4.9,45.8,45.8,0,0,0,1.5-4.9,16.26,16.26,0,0,1,1-2.5A3.58,3.58,0,0,0,253.1,290.7Z" transform="translate(-69.4 -48.3)"/><path class="cls-5" d="M312.2,170.1c-7.5-7.1-20.9-8.2-28.2-8.2-1.2,0-2.5,0-3.7.1-.4,0-1.1,1-1.1,1s-.5-.9-.7-.9a51.94,51.94,0,0,0-13,2.3l-.4.1c-2.8,1-6.3,2.3-4.9,6.7.7,2.3,2.3,3.6,4.3,3.6a7.85,7.85,0,0,0,1.4-.2c.7-.2,1.4-.5,2.2-.8a11.22,11.22,0,0,1,1.3-.5c.5-.2,1.1-.4,1.6-.6.7-.2,2.1-2.5,2.1-2.5s1.6,1.6,2.4,1.4a53.54,53.54,0,0,1,10.8-1,63.61,63.61,0,0,1,20.8,3.3,10.37,10.37,0,0,0,3.6.9,2.59,2.59,0,0,0,2.5-1.5A3.12,3.12,0,0,0,312.2,170.1Z" transform="translate(-69.4 -48.3)"/><path class="cls-5" d="M231.2,164.5l-.4-.1a29.17,29.17,0,0,0-5.3-1.3c-.8-.1-2.7,1.3-2.7,1.3s-.7-1.8-1.1-1.8a91.43,91.43,0,0,0-9.6-.6c-7.3,0-20.7,1.1-28.2,8.2a2.73,2.73,0,0,0-.9,3.2,2.45,2.45,0,0,0,2.5,1.5,10.37,10.37,0,0,0,3.6-.9,66,66,0,0,1,20.8-3.3,49.12,49.12,0,0,1,16.9,2.7,6.94,6.94,0,0,1,1.3.5,15.19,15.19,0,0,0,2.2.8,7.84,7.84,0,0,0,1.4.2c2.1,0,3.7-1.3,4.4-3.6C237.5,166.8,234,165.5,231.2,164.5Z" transform="translate(-69.4 -48.3)"/><path class="cls-7" d="M260.4,260.3c-3.5-.5-12.3,3.1-12.3,3.1s-8.9-3.7-12.4-3.1c-5.7.9-14.1,9.5-14.1,11.2,0,2.8,11.9,6.6,26.5,6.6s26.5-3.8,26.5-6.6C274.6,271.6,266.1,261.2,260.4,260.3Z" transform="translate(-69.4 -48.3)"/><path class="cls-8" d="M248.1,266.8c-15.7,0-26.5,4.8-26.5,4.8,0,2.8,11.9,6.6,26.5,6.6s26.5-3.8,26.5-6.6C274.6,271.6,263.8,266.8,248.1,266.8Z" transform="translate(-69.4 -48.3)"/><path class="cls-9" d="M257.6,204.2c0-11.4-3.8-14.4-3.8-14.4,2.2,8.3,2,15.2,2.3,21.7.4,9.3,4.2,14.6,4.2,14.6C258.7,222.2,257.6,215.6,257.6,204.2Z" transform="translate(-69.4 -48.3)"/><path class="cls-9" d="M233.9,235.3s-6.5,12.7,5.1,11.5C238.9,246.9,231.3,244.5,233.9,235.3Z" transform="translate(-69.4 -48.3)"/><path class="cls-9" d="M263.6,235.3c2.5,9.1-5.1,11.5-5.1,11.5C270.1,248.7,263.6,235.3,263.6,235.3Z" transform="translate(-69.4 -48.3)"/><path class="cls-10" d="M281.9,178.4c-9.9-.2-17.1,11-17.1,11s3.4,3.5,17.6,3.5c14.4,0,19.4-5.5,19.4-5.5S293.3,178.6,281.9,178.4Z" transform="translate(-69.4 -48.3)"/><path class="cls-11" d="M281.9,178.4c-9.9-.2-17.1,11-17.1,11a59.84,59.84,0,0,0,17.6,1.7,71.22,71.22,0,0,0,19.4-3.7S293.3,178.6,281.9,178.4Z" transform="translate(-69.4 -48.3)"/><circle class="cls-12" cx="213.6" cy="136.6" r="7.4"/><path class="cls-7" d="M290,177.5a53.66,53.66,0,0,0-8.3-.5c-9.9.3-16.9,12.3-16.9,12.3l.9.2c3.8-3,12.7-10.3,19-10.2a22.84,22.84,0,0,1,17.2,8S300.7,179.5,290,177.5Z" transform="translate(-69.4 -48.3)"/><path class="cls-5" d="M288.4,177.6c-9.9-.2-23.7,11.7-23.7,11.7l.9.2c3.8-3,12.7-10.3,19-10.2,9.4.3,17.2,8,17.2,8S299.9,177.9,288.4,177.6Z" transform="translate(-69.4 -48.3)"/><path class="cls-5" d="M282.4,191a59.21,59.21,0,0,1-17.6-1.7s3.4,3.5,17.6,3.5c14.4,0,19.4-5.5,19.4-5.5A71.22,71.22,0,0,1,282.4,191Z" transform="translate(-69.4 -48.3)"/><path class="cls-10" d="M214.3,178.4c-11.5.3-19.9,9-19.9,9s5,5.5,19.4,5.5c14.2,0,17.6-3.5,17.6-3.5S224.3,178.1,214.3,178.4Z" transform="translate(-69.4 -48.3)"/><path class="cls-11" d="M214.3,178.4c-11.5.3-19.9,9-19.9,9a71.22,71.22,0,0,0,19.4,3.7,59.21,59.21,0,0,0,17.6-1.7S224.3,178.1,214.3,178.4Z" transform="translate(-69.4 -48.3)"/><circle class="cls-12" cx="143.8" cy="136.6" r="7.4"/><path class="cls-7" d="M214.5,177a43.57,43.57,0,0,0-8.3.5c-10.7,2-11.8,9.9-11.8,9.9a22.84,22.84,0,0,1,17.2-8c6.2-.1,15.2,7.2,19,10.2l.9-.2C231.5,189.3,224.4,177.3,214.5,177Z" transform="translate(-69.4 -48.3)"/><path class="cls-5" d="M207.8,177.6c-11.5.3-13.3,9.7-13.3,9.7s7.7-7.7,17.2-8c6.2-.2,15.2,7.2,19,10.2l.9-.2C231.5,189.3,217.7,177.4,207.8,177.6Z" transform="translate(-69.4 -48.3)"/><path class="cls-5" d="M213.8,191a71.22,71.22,0,0,1-19.4-3.7s5,5.5,19.4,5.5c14.2,0,17.6-3.5,17.6-3.5A59.21,59.21,0,0,1,213.8,191Z" transform="translate(-69.4 -48.3)"/><path class="cls-13" d="M371.8,131.3c0-38.4-64-82.1-123.6-82.2h0c-59.6,0-123.6,43.8-123.6,82.2,0,0-9.3,83.3-9.3,96.3,0,0,16.5-19.2,45.1-47,13-12.6,28.5-47,46-47,13.9-.8,34,15,41.9,15,8.1,0,28.5-15.8,42.8-15,17.5,0,32.5,33.4,45,45,29.8,27.6,45.2,49,45.2,49C381.1,214.6,371.8,131.3,371.8,131.3Z" transform="translate(-69.4 -48.3)"/><path class="cls-14" d="M341.1,75.6l-19,5.3a12.57,12.57,0,0,1,.5,3.3c0,15.7-33.4,28.5-74.5,28.5S173.6,100,173.6,84.2a12.57,12.57,0,0,1,.5-3.3l-19-5.3c-2.5,3.9-8.5,13.1-8.5,16.8,0,21.4,45.4,38.8,101.5,38.8s101.5-17.4,101.5-38.8C349.6,88.7,343.7,79.5,341.1,75.6Z" transform="translate(-69.4 -48.3)"/><path class="cls-5" d="M248.1,48.3c-53.3,0-96.5,16.5-96.5,36.8s43.2,36.8,96.5,36.8,96.5-16.5,96.5-36.8S301.4,48.3,248.1,48.3Zm0,56c-39.1,0-70.9-12.1-70.9-27.1s31.7-27.1,70.9-27.1S319,62.2,319,77.2,287.2,104.3,248.1,104.3Z" transform="translate(-69.4 -48.3)"/><path class="cls-3" d="M220.9,347.6V494.7a245.69,245.69,0,0,0,27.3,1.5c6.1,0,12.2-.2,18.2-.7V347.6Z" transform="translate(-69.4 -48.3)"/><path class="cls-13" d="M225.3,347.6V495.1c7.5.7,15.1,1.1,22.8,1.1s15.3-.4,22.7-1.1V347.6Z" transform="translate(-69.4 -48.3)"/><path class="cls-13" d="M248.1,328.9c-12.6,0-40.6-3.3-56.1-14.2v32.4c15.5,10.9,43.4,14.2,56.1,14.2s40.4-3.2,55.9-14V315C288.6,325.7,260.7,328.9,248.1,328.9Z" transform="translate(-69.4 -48.3)"/></svg>