<?xml version="1.0" encoding="iso-8859-1"?>
<!-- Generator: Adobe Illustrator 17.1.0, SVG Export Plug-In . SVG Version: 6.00 Build 0)  -->
<!DOCTYPE svg PUBLIC "-//W3C//DTD SVG 1.1//EN" "http://www.w3.org/Graphics/SVG/1.1/DTD/svg11.dtd">
<svg version="1.1" id="Capa_1" xmlns="http://www.w3.org/2000/svg" xmlns:xlink="http://www.w3.org/1999/xlink" x="0px" y="0px"
	 viewBox="0 0 511 511" style="enable-background:new 0 0 511 511;" xml:space="preserve">
<g>
	<path d="M71.5,363.561c-4.142,0-7.5,3.358-7.5,7.5c0,4.687-3.813,8.5-8.5,8.5s-8.5-3.813-8.5-8.5s3.813-8.5,8.5-8.5
		c4.142,0,7.5-3.358,7.5-7.5s-3.358-7.5-7.5-7.5c-12.958,0-23.5,10.542-23.5,23.5s10.542,23.5,23.5,23.5s23.5-10.542,23.5-23.5
		C79,366.919,75.642,363.561,71.5,363.561z"/>
	<path d="M167.5,363.561c-4.142,0-7.5,3.358-7.5,7.5c0,4.687-3.813,8.5-8.5,8.5s-8.5-3.813-8.5-8.5s3.813-8.5,8.5-8.5
		c4.142,0,7.5-3.358,7.5-7.5s-3.358-7.5-7.5-7.5c-12.958,0-23.5,10.542-23.5,23.5s10.542,23.5,23.5,23.5s23.5-10.542,23.5-23.5
		C175,366.919,171.642,363.561,167.5,363.561z"/>
	<path d="M423.5,363.561c-4.142,0-7.5,3.358-7.5,7.5c0,4.687-3.813,8.5-8.5,8.5s-8.5-3.813-8.5-8.5s3.813-8.5,8.5-8.5
		c4.142,0,7.5-3.358,7.5-7.5s-3.358-7.5-7.5-7.5c-12.958,0-23.5,10.542-23.5,23.5s10.542,23.5,23.5,23.5s23.5-10.542,23.5-23.5
		C431,366.919,427.642,363.561,423.5,363.561z"/>
	<path d="M510.991,258.882c-0.004-0.157-0.01-0.314-0.024-0.472c-0.009-0.108-0.023-0.215-0.037-0.321
		c-0.017-0.132-0.036-0.263-0.06-0.395c-0.025-0.134-0.055-0.265-0.087-0.396c-0.025-0.102-0.049-0.204-0.079-0.306
		c-0.044-0.155-0.096-0.306-0.15-0.456c-0.02-0.055-0.033-0.111-0.054-0.167l-32.11-83.487c-5.825-15.145-20.641-25.32-36.867-25.32
		H375.5c-12.958,0-23.5,10.542-23.5,23.5v5.203l-28.851-35.195c-2.496-3.044-5.721-5.336-9.327-6.626l-136.29-48.781
		c-3.313-1.186-6.945-1.518-10.504-0.959L73.44,99.387l-13.263-4.748c-12.198-4.366-25.678,2.007-30.045,14.207L8.566,169.102
		c-2.116,5.91-1.803,12.29,0.88,17.965c1.551,3.279,3.803,6.076,6.554,8.278v103.716c0,9.713,4.421,18.411,11.355,24.194
		C11,332.921,0,350.726,0,371.061c0,30.603,24.897,55.5,55.5,55.5c20.474,0,38.38-11.152,48-27.692
		c9.62,16.54,27.526,27.692,48,27.692c28.058,0,51.305-20.934,54.979-48H216v0.5c0,12.958,10.542,23.5,23.5,23.5h48
		c12.958,0,23.5-10.542,23.5-23.5v-0.5h41.521c3.675,27.066,26.921,48,54.979,48c28.084,0,51.348-20.973,54.989-48.076
		c0.331,0.045,0.667,0.076,1.011,0.076h32c8.547,0,15.5-6.953,15.5-15.5v-104C511,259.001,510.992,258.942,510.991,258.882z
		 M496,323.561h-8.5c-0.257,0-0.5-0.243-0.5-0.5v-8c0-0.257,0.243-0.5,0.5-0.5h8.5V323.561z M489.503,243.561H415.5
		c-9.098,0-16.5-7.402-16.5-16.5v-32.5h71.657L489.503,243.561z M321.963,315.561c5.562-3.205,10.066-8.601,12.444-15.246
		L352,251.163v64.398H321.963z M349.829,197.276c1.443,1.76,2.181,4.211,2.171,6.853v0.164c-0.024,1.587-0.316,3.239-0.893,4.851
		l-30.823,86.118c-1.56,4.358-4.903,7.639-8.519,8.36l-50.091,9.982l38.327-107.081c1.396-3.9-0.634-8.193-4.534-9.589
		c-3.899-1.396-8.192,0.634-9.589,4.534l-39.556,110.514c-0.246,0.687-0.38,1.386-0.422,2.08l-129.568-46.375
		c0.409-0.563,0.757-1.184,1.003-1.872l39.556-110.514c1.396-3.899-0.634-8.192-4.534-9.588c-3.898-1.397-8.192,0.634-9.589,4.534
		l-38.533,107.657l-55.311-62.089l29.35-82.001l82.229-12.902l-7.333,20.487c-1.396,3.9,0.634,8.193,4.534,9.589
		c0.835,0.299,1.688,0.441,2.527,0.441c3.079,0,5.965-1.91,7.062-4.974l9.05-25.285l128.986,46.167l-9.05,25.285
		c-1.396,3.899,0.634,8.192,4.534,9.589c0.835,0.299,1.688,0.44,2.527,0.44c3.079,0,5.965-1.91,7.062-4.975l7.099-19.833
		L349.829,197.276z M22.688,174.157l21.566-60.256c1.242-3.47,4.521-5.637,8.011-5.637c0.949,0,1.914,0.16,2.856,0.498l8.002,2.864
		l-27.296,76.262l-8.003-2.865c-2.137-0.765-3.849-2.316-4.819-4.369C22.036,178.602,21.923,176.295,22.688,174.157z M47.5,315.561
		c-9.098,0-16.5-7.402-16.5-16.5v-96.969l5.035,1.802L99.05,274.63c2.396,2.689,5.414,4.738,8.727,5.924l97.806,35.007H55.5H47.5z
		 M113.61,330.561c-3.957,3.704-7.368,7.979-10.11,12.692c-2.741-4.713-6.153-8.988-10.11-12.692H113.61z M55.5,411.561
		c-22.332,0-40.5-18.168-40.5-40.5s18.168-40.5,40.5-40.5s40.5,18.168,40.5,40.5S77.832,411.561,55.5,411.561z M151.5,411.561
		c-22.332,0-40.5-18.168-40.5-40.5s18.168-40.5,40.5-40.5s40.5,18.168,40.5,40.5S173.832,411.561,151.5,411.561z M296,379.061
		c0,4.687-3.813,8.5-8.5,8.5h-48c-4.687,0-8.5-3.813-8.5-8.5v-16c0-4.687,3.813-8.5,8.5-8.5h48c4.687,0,8.5,3.813,8.5,8.5V379.061z
		 M287.5,339.561h-48c-12.958,0-23.5,10.542-23.5,23.5v0.5h-9.521c-1.758-12.945-7.989-24.481-17.089-33h180.22
		c-9.1,8.519-15.332,20.055-17.089,33H311v-0.5C311,350.103,300.458,339.561,287.5,339.561z M407.5,411.561
		c-22.332,0-40.5-18.168-40.5-40.5s18.168-40.5,40.5-40.5s40.5,18.168,40.5,40.5S429.832,411.561,407.5,411.561z M495.5,363.561h-32
		c-0.344,0-0.68,0.031-1.011,0.076c-3.641-27.104-26.905-48.076-54.989-48.076H367v-111.94c0-0.027,0-0.055,0-0.083v-32.477
		c0-4.687,3.813-8.5,8.5-8.5h66.022c10.064,0,19.254,6.312,22.867,15.705l0.498,1.295H391.5c-4.142,0-7.5,3.358-7.5,7.5v40
		c0,17.369,14.131,31.5,31.5,31.5h79.772l0.728,1.893v39.107h-8.5c-8.547,0-15.5,6.953-15.5,15.5v8c0,8.547,6.953,15.5,15.5,15.5
		h8.5v24.5C496,363.337,495.776,363.561,495.5,363.561z"/>
	<path d="M247.5,363.561c-1.98,0-3.91,0.8-5.3,2.2c-1.4,1.39-2.2,3.33-2.2,5.3s0.8,3.91,2.2,5.3c1.39,1.4,3.32,2.2,5.3,2.2
		c1.97,0,3.91-0.8,5.3-2.2c1.4-1.39,2.2-3.33,2.2-5.3s-0.8-3.91-2.2-5.3C251.41,364.361,249.47,363.561,247.5,363.561z"/>
</g>
<g>
</g>
<g>
</g>
<g>
</g>
<g>
</g>
<g>
</g>
<g>
</g>
<g>
</g>
<g>
</g>
<g>
</g>
<g>
</g>
<g>
</g>
<g>
</g>
<g>
</g>
<g>
</g>
<g>
</g>
</svg>
