<?xml version="1.0" encoding="iso-8859-1"?>
<!-- Generator: Adobe Illustrator 19.0.0, SVG Export Plug-In . SVG Version: 6.00 Build 0)  -->
<svg version="1.1" id="Layer_1" xmlns="http://www.w3.org/2000/svg" xmlns:xlink="http://www.w3.org/1999/xlink" x="0px" y="0px"
	 viewBox="0 0 512 512" style="enable-background:new 0 0 512 512;" xml:space="preserve">
<g>
	<g>
		<g>
			<path d="M504.242,77.576h-82.747c-4.285,0-7.758,3.473-7.758,7.758v12.929h-36.202V43.96c0-4.284-3.472-7.758-7.758-7.758
				h-41.374c-3.339,0-6.304,2.137-7.359,5.304l-18.919,56.757H59.475C26.68,98.263,0,124.943,0,157.737
				c0,4.284,3.473,7.758,7.758,7.758h33.616v95.677c0,1.419,0.387,2.744,1.052,3.888c-6.667,2.672-11.395,9.188-11.395,16.799
				c0,9.98,8.121,18.101,18.101,18.101c4.284,0,7.758-3.473,7.758-7.758s-3.473-7.758-7.758-7.758c-1.425,0-2.586-1.161-2.586-2.586
				c0-1.425,1.161-2.586,2.586-2.586c4.284,0,7.758-3.473,7.758-7.758c0-1.99-0.755-3.798-1.987-5.172
				c1.231-1.374,1.987-3.182,1.987-5.172v-95.677h222.384v2.586c0,4.284,3.472,7.758,7.758,7.758h12.929v232.727h-23.273
				c-3.171,0-6.024,1.931-7.203,4.876l-18.736,46.841h-15.434c-4.284,0-7.758,3.473-7.758,7.758s3.473,7.758,7.758,7.758h206.869
				c4.285,0,7.758-3.473,7.758-7.758s-3.472-7.758-7.758-7.758h-15.434l-18.736-46.841c-1.179-2.945-4.031-4.876-7.203-4.876
				h-23.273V175.838h12.929c4.285,0,7.758-3.473,7.758-7.758v-2.586h15.515v23.273c0,4.284,3.472,7.758,7.758,7.758h82.747
				c4.285,0,7.758-3.473,7.758-7.758V85.333C512,81.049,508.528,77.576,504.242,77.576z M315.475,107.279l18.52-55.562h28.026
				v67.232h-46.545V107.279z M279.273,126.707v23.273H16.201c3.675-20.552,21.682-36.202,43.274-36.202H299.96v5.172H287.03
				C282.745,118.95,279.273,122.423,279.273,126.707z M395.556,424.081l14.481,36.202H267.458l14.481-36.202H395.556z
				 M358.807,292.202l-20.059,20.059l-20.059-20.059l20.059-20.059L358.807,292.202z M318.688,230.141l20.059-20.059l20.059,20.059
				L338.747,250.2L318.688,230.141z M358.807,354.263l-20.059,20.059l-20.059-20.059l20.059-20.059L358.807,354.263z
				 M338.749,396.264l12.3,12.301h-24.602L338.749,396.264z M349.719,385.293l12.301-12.301v24.603L349.719,385.293z
				 M349.719,323.232l12.301-12.301v24.603L349.719,323.232z M349.719,261.172l12.301-12.301v24.603L349.719,261.172z
				 M349.719,199.111l12.301-12.301v24.603L349.719,199.111z M338.747,188.14l-12.301-12.301h24.603L338.747,188.14z
				 M327.777,199.111l-12.303,12.301v-24.604L327.777,199.111z M327.777,261.172l-12.303,12.301v-24.604L327.777,261.172z
				 M327.777,323.232l-12.303,12.301V310.93L327.777,323.232z M327.777,385.293l-12.303,12.301V372.99L327.777,385.293z
				 M382.707,160.323h-87.919v-25.859h87.919V160.323z M413.737,149.98h-15.515v-23.273c0-4.284-3.472-7.758-7.758-7.758h-12.929
				v-5.172h36.202V149.98z M496.485,181.01h-67.232v-15.515h67.232V181.01z M496.485,149.98h-67.232V93.091h67.232V149.98z"/>
			<path d="M235.313,124.121H80.162c-4.284,0-7.758,3.473-7.758,7.758s3.473,7.758,7.758,7.758h155.152
				c4.284,0,7.758-3.473,7.758-7.758S239.597,124.121,235.313,124.121z"/>
		</g>
	</g>
</g>
<g>
</g>
<g>
</g>
<g>
</g>
<g>
</g>
<g>
</g>
<g>
</g>
<g>
</g>
<g>
</g>
<g>
</g>
<g>
</g>
<g>
</g>
<g>
</g>
<g>
</g>
<g>
</g>
<g>
</g>
</svg>
