<?xml version="1.0" encoding="iso-8859-1"?>
<!-- Generator: Adobe Illustrator 19.0.0, SVG Export Plug-In . SVG Version: 6.00 Build 0)  -->
<svg version="1.1" id="Capa_1" xmlns="http://www.w3.org/2000/svg" xmlns:xlink="http://www.w3.org/1999/xlink" x="0px" y="0px"
	 viewBox="0 0 512 512" style="enable-background:new 0 0 512 512;" xml:space="preserve">
<g>
	<g>
		<path d="M215.919,168.339c-48.336,0-87.661,39.325-87.661,87.661s39.325,87.661,87.661,87.661S303.58,304.336,303.58,256
			S264.256,168.339,215.919,168.339z M215.919,328.661c-40.065,0-72.661-32.596-72.661-72.661s32.596-72.661,72.661-72.661
			S288.58,215.935,288.58,256S255.985,328.661,215.919,328.661z"/>
	</g>
</g>
<g>
	<g>
		<path d="M287.636,160.111c-22.832-17.118-51.158-25.485-79.78-23.567c-28.893,1.939-56.095,14.297-76.595,34.797
			c-20.499,20.499-32.857,47.7-34.796,76.593c-1.921,28.614,6.448,56.947,23.565,79.779c1.474,1.965,3.726,3.001,6.007,3.001
			c1.565,0,3.144-0.488,4.493-1.5c3.314-2.485,3.986-7.186,1.502-10.5c-14.967-19.96-22.282-44.74-20.602-69.775
			c1.696-25.269,12.506-49.061,30.437-66.992c17.932-17.931,41.724-28.741,66.993-30.437c25.033-1.68,49.815,5.636,69.777,20.602
			c3.315,2.486,8.015,1.812,10.5-1.501C291.622,167.297,290.95,162.596,287.636,160.111z"/>
	</g>
</g>
<g>
	<g>
		<path d="M311.807,184.284c-2.485-3.314-7.185-3.987-10.499-1.501c-3.314,2.484-3.986,7.186-1.501,10.5
			c14.966,19.961,22.283,44.742,20.602,69.777c-1.696,25.27-12.505,49.062-30.437,66.993c-17.931,17.931-41.723,28.74-66.992,30.437
			c-25.042,1.682-49.815-5.636-69.776-20.601c-3.314-2.485-8.015-1.811-10.5,1.502c-2.484,3.314-1.812,8.015,1.502,10.5
			c20.686,15.508,45.886,23.835,71.721,23.835c2.68,0,5.368-0.09,8.058-0.271c28.893-1.939,56.094-14.297,76.593-34.796
			c20.5-20.5,32.857-47.701,34.796-76.595C337.295,235.449,328.925,207.116,311.807,184.284z"/>
	</g>
</g>
<g>
	<g>
		<path d="M333.584,114.713c-35.085-29.285-79.647-44.347-125.492-42.402c-46.123,1.954-89.512,21.019-122.177,53.684
			S34.184,202.05,32.23,248.172c-1.942,45.839,13.117,90.406,42.402,125.492c1.483,1.777,3.615,2.694,5.762,2.694
			c1.695,0,3.399-0.571,4.802-1.742c3.18-2.654,3.606-7.384,0.952-10.564c-26.889-32.215-40.715-73.142-38.931-115.245
			c1.794-42.357,19.304-82.206,49.304-112.206s69.849-47.51,112.206-49.304c42.103-1.778,83.031,12.043,115.245,38.932
			c3.18,2.654,7.91,2.228,10.564-0.952C337.19,122.097,336.764,117.367,333.584,114.713z"/>
	</g>
</g>
<g>
	<g>
		<path d="M357.206,138.336c-2.654-3.179-7.383-3.605-10.564-0.952c-3.18,2.654-3.606,7.384-0.952,10.564
			c26.889,32.214,40.715,73.143,38.932,115.245c-1.794,42.357-19.304,82.206-49.304,112.206s-69.849,47.51-112.206,49.304
			c-2.418,0.102-4.828,0.153-7.237,0.153c-39.534-0.001-77.644-13.741-108.008-39.085c-3.181-2.654-7.909-2.229-10.564,0.952
			c-2.654,3.18-2.228,7.91,0.952,10.564c33.073,27.605,74.57,42.569,117.616,42.569c2.62,0,5.247-0.056,7.876-0.167
			c46.123-1.954,89.512-21.019,122.177-53.684c32.665-32.665,51.73-76.055,53.684-122.177
			C401.55,217.989,386.491,173.422,357.206,138.336z"/>
	</g>
</g>
<g>
	<g>
		<path d="M504.5,168.339c-4.142,0-7.5,3.358-7.5,7.5c0,75.079-29.237,145.665-82.327,198.754
			c-17.103,17.103-36.03,31.714-56.329,43.686c3.501-3.081,6.926-6.273,10.254-9.601c40.782-40.782,63.241-95.004,63.241-152.678
			s-22.459-111.896-63.241-152.678C327.816,62.54,273.594,40.081,215.92,40.081c-57.674,0-111.897,22.459-152.679,63.241
			C22.459,144.104,0,198.326,0,256s22.459,111.896,63.241,152.678c40.782,40.782,95.004,63.241,152.678,63.241
			c79.086,0,153.438-30.798,209.36-86.72S512,254.925,512,175.839C512,171.697,508.642,168.339,504.5,168.339z M215.92,456.919
			C105.133,456.919,15,366.788,15,256S105.132,55.081,215.919,55.081S416.839,145.212,416.839,256S326.707,456.919,215.92,456.919z"
			/>
	</g>
</g>
<g>
	<g>
		<path d="M215.919,104.209c-83.698,0-151.791,68.093-151.791,151.791s68.093,151.791,151.791,151.791
			c83.697,0,151.79-68.093,151.79-151.791S299.617,104.209,215.919,104.209z M215.919,392.791
			c-75.427,0-136.791-61.364-136.791-136.791c0-75.427,61.364-136.791,136.791-136.791c75.426,0,136.79,61.364,136.79,136.791
			S291.346,392.791,215.919,392.791z"/>
	</g>
</g>
<g>
</g>
<g>
</g>
<g>
</g>
<g>
</g>
<g>
</g>
<g>
</g>
<g>
</g>
<g>
</g>
<g>
</g>
<g>
</g>
<g>
</g>
<g>
</g>
<g>
</g>
<g>
</g>
<g>
</g>
</svg>
