<?xml version="1.0" encoding="iso-8859-1"?>
<!-- Generator: Adobe Illustrator 19.0.0, SVG Export Plug-In . SVG Version: 6.00 Build 0)  -->
<svg version="1.1" id="Layer_1" xmlns="http://www.w3.org/2000/svg" xmlns:xlink="http://www.w3.org/1999/xlink" x="0px" y="0px"
	 viewBox="0 0 512 512" style="enable-background:new 0 0 512 512;" xml:space="preserve">
<g>
	<g>
		<path d="M501.801,245.801H387.908V134.629c0-5.632-4.566-10.199-10.199-10.199h-111.17V10.199C266.539,4.567,261.973,0,256.34,0
			H10.199C4.566,0,0,4.567,0,10.199v491.602C0,507.433,4.566,512,10.199,512h491.602c5.633,0,10.199-4.567,10.199-10.199V256
			C512,250.368,507.434,245.801,501.801,245.801z M367.51,144.829v100.972H144.489V144.829H367.51z M20.398,20.398H246.14V124.43
			H20.398V20.398z M20.398,144.829h103.692v100.972H20.398V144.829z M20.398,266.199H246.14v101.652H20.398V266.199z
			 M124.091,491.602H20.398V388.25h103.692V491.602z M367.511,491.602H144.489V388.25h223.022V491.602z M491.602,491.602H387.909
			V388.25h33.318c5.633,0,10.199-4.567,10.199-10.199c0-5.632-4.566-10.199-10.199-10.199H266.539V266.199h225.063V491.602z"/>
	</g>
</g>
<g>
	<g>
		<path d="M464.064,367.852h-6.12c-5.633,0-10.199,4.567-10.199,10.199c0,5.632,4.566,10.199,10.199,10.199h6.12
			c5.633,0,10.199-4.567,10.199-10.199C474.263,372.419,469.697,367.852,464.064,367.852z"/>
	</g>
</g>
<g>
</g>
<g>
</g>
<g>
</g>
<g>
</g>
<g>
</g>
<g>
</g>
<g>
</g>
<g>
</g>
<g>
</g>
<g>
</g>
<g>
</g>
<g>
</g>
<g>
</g>
<g>
</g>
<g>
</g>
</svg>
