<svg height="512pt" viewBox="0 0 512 512" width="512pt" xmlns="http://www.w3.org/2000/svg"><path d="m215.832031 253.5 34.136719 34.132812c1.597656 1.601563 3.769531 2.5 6.03125 2.5s4.433594-.898437 6.03125-2.5l34.136719-34.132812c1.597656-1.601562 2.5-3.769531 2.5-6.035156v-128h14.222656c9.300781-.195313 17.273437-6.6875 19.351563-15.753906l33.363281-80.078126c2.199219-5.265624 1.621093-11.285156-1.546875-16.03125-3.164063-4.75-8.492188-7.601562-14.199219-7.601562h-187.71875c-5.707031-.00390625-11.039063 2.851562-14.203125 7.601562-3.167969 4.75-3.746094 10.769532-1.546875 16.035157l33.367187 80.074219c3.953126 9.554687 13.285157 15.777343 23.625 15.753906h9.949219v128c0 2.265625.902344 4.433594 2.5 6.035156zm65.769531-9.566406-25.601562 25.597656-25.601562-25.597656v-124.46875h51.203124zm-86.09375-146.789063-33.398437-80.078125h187.75l-33.367187 80.082032c-.65625 1.796874-1.496094 3.515624-2.507813 5.140624-.355469.097657-.726563.132813-1.09375.109376h-109.507813c-3.445312.003906-6.554687-2.070313-7.875-5.253907zm0 0"/><path d="m36.382812 142.011719-18.097656 18.105469c-3.203125 3.199218-5.003906 7.539062-5.003906 12.066406s1.800781 8.867187 5.003906 12.066406l216.597656 216.601562c5.601563 5.601563 13.195313 8.75 21.117188 8.75s15.515625-3.148437 21.117188-8.75l216.597656-216.601562c3.203125-3.199219 5.003906-7.539062 5.003906-12.066406s-1.800781-8.867188-5.003906-12.066406l-18.097656-18.105469c-6.667969-6.65625-17.46875-6.65625-24.132813 0l-195.484375 195.480469-195.484375-195.480469c-6.664063-6.65625-17.464844-6.65625-24.132813 0zm225.648438 213.585937 201.519531-201.519531 18.097657 18.105469-216.597657 216.597656c-5.066406 4.835938-13.035156 4.835938-18.101562 0l-216.597657-216.597656 18.097657-18.105469 201.519531 201.519531c3.332031 3.328125 8.730469 3.328125 12.0625 0zm0 0"/><path d="m494.933594 298.667969h-89.5c-5.480469.007812-10.625 2.636719-13.84375 7.074219l-105.824219 146.523437h-59.539063l-105.828124-146.53125c-3.214844-4.433594-8.355469-7.058594-13.832032-7.066406h-89.5c-9.421875.007812-17.0546872 7.644531-17.066406 17.066406v179.199219c.0117188 9.421875 7.644531 17.054687 17.066406 17.066406h477.867188c9.421875-.011719 17.054687-7.644531 17.066406-17.066406v-179.199219c-.011719-9.421875-7.644531-17.058594-17.066406-17.066406zm0 196.265625h-477.867188v-179.199219h89.507813l105.824219 146.53125c3.21875 4.433594 8.359374 7.058594 13.835937 7.066406h59.53125c5.480469-.007812 10.625-2.636719 13.84375-7.074219l105.824219-146.523437h89.5zm0 0"/><path d="m110.933594 0c-4.714844 0-8.535156 3.820312-8.535156 8.535156v105.726563l-9.75-16.25c-1.554688-2.636719-4.40625-4.238281-7.472657-4.195313-3.0625.046875-5.867187 1.730469-7.34375 4.410156-1.480469 2.683594-1.410156 5.953126.183594 8.566407l25.601563 42.667969c.09375.160156.234374.273437.339843.425781.179688.25.367188.488281.570313.71875.371094.425781.777344.816406 1.222656 1.160156.222656.171875.429688.34375.664062.488281.609376.382813 1.261719.6875 1.949219.902344.105469.035156.1875.113281.300781.140625l.074219.011719c.675781.179687 1.375.273437 2.074219.28125l.121094.011718h.007812c.074219 0 .152344-.03125.226563-.03125.664062-.011718 1.320312-.097656 1.964843-.261718.191407-.050782.367188-.160156.558594-.226563.527344-.167969 1.039063-.386719 1.523438-.652343l.109375-.046876c.085937-.050781.125-.132812.203125-.183593.753906-.496094 1.425781-1.105469 1.984375-1.8125.152343-.1875.308593-.355469.441406-.554688.089844-.132812.214844-.234375.296875-.375l25.601562-42.664062c1.59375-2.617188 1.664063-5.886719.183594-8.570313-1.480468-2.679687-4.28125-4.363281-7.347656-4.40625-3.0625-.046875-5.914062 1.554688-7.46875 4.191406l-9.753906 16.253907v-105.726563c0-4.714844-3.820313-8.535156-8.53125-8.535156zm0 0"/><path d="m401.066406 0c-4.710937 0-8.53125 3.820312-8.53125 8.535156v105.726563l-9.753906-16.25c-2.441406-4.003907-7.652344-5.285157-11.675781-2.871094-4.019531 2.410156-5.339844 7.617187-2.957031 11.652344l25.601562 42.667969c.09375.160156.234375.273437.335938.425781.179687.25.367187.488281.570312.71875.371094.425781.777344.816406 1.226562 1.160156.21875.171875.425782.34375.660157.488281.609375.382813 1.261719.6875 1.949219.902344.105468.035156.1875.113281.300781.140625l.074219.011719c.675781.179687 1.375.273437 2.074218.28125l.125.011718h.007813c.074219 0 .152343-.03125.226562-.03125.664063-.011718 1.324219-.097656 1.964844-.261718.191406-.050782.367187-.160156.558594-.226563.527343-.167969 1.039062-.386719 1.523437-.652343l.109375-.046876c.085938-.050781.125-.132812.203125-.183593.753906-.496094 1.425782-1.105469 1.984375-1.8125.152344-.1875.308594-.355469.441407-.554688.089843-.132812.214843-.234375.296874-.375l25.601563-42.664062c1.59375-2.617188 1.664063-5.886719.183594-8.570313-1.476563-2.679687-4.28125-4.363281-7.34375-4.40625-3.066407-.046875-5.917969 1.554688-7.472657 4.191406l-9.75 16.253907v-105.726563c0-4.714844-3.820312-8.535156-8.535156-8.535156zm0 0"/></svg>