<svg id="icons" enable-background="new 0 0 64 64" height="512" viewBox="0 0 64 64" width="512" xmlns="http://www.w3.org/2000/svg"><path d="m50.002 64c2.757 0 5-2.243 5-5v-52.002-1.045-.953c0-2.757-2.243-5-5-5h-36.004c-2.757 0-5 2.243-5 5v.953 1.045 52.002c0 2.757 2.243 5 5 5zm3-53c0 1.654-1.346 3-3 3h-36.004c-1.654 0-3-1.346-3-3v-.027c.838.635 1.87 1.025 3 1.025h36.004c1.13 0 2.162-.391 3-1.025zm-42.004 3.975c.838.635 1.87 1.025 3 1.025h36.004c1.13 0 2.162-.391 3-1.025v40.025c0 1.654-1.346 3-3 3h-36.004c-1.654 0-3-1.346-3-3zm0-9.975c0-1.654 1.346-3 3-3h36.004c1.654 0 3 1.346 3 3v.953 1.045c0 1.654-1.346 3-3 3h-36.004c-1.654 0-3-1.346-3-3v-1.045zm0 54v-.025c.838.635 1.87 1.025 3 1.025h36.004c1.13 0 2.162-.391 3-1.025v.025c0 1.654-1.346 3-3 3h-36.004c-1.654 0-3-1.346-3-3z"/><path d="m13.998 7h36c.553 0 1-.447 1-1s-.447-1-1-1h-36c-.553 0-1 .447-1 1s.447 1 1 1z"/><path d="m31.998 47c3.739 0 7.255-1.456 9.899-4.101 5.459-5.459 5.459-14.34 0-19.799-2.644-2.644-6.16-4.1-9.899-4.1s-7.255 1.456-9.899 4.101c-5.459 5.459-5.459 14.34 0 19.799 2.644 2.644 6.16 4.1 9.899 4.1zm-8.485-22.485c2.266-2.267 5.28-3.515 8.485-3.515s6.219 1.248 8.485 3.515c4.679 4.679 4.679 12.292 0 16.971-2.266 2.266-5.28 3.514-8.485 3.514s-6.219-1.248-8.485-3.515c-4.679-4.678-4.679-12.292 0-16.97z"/><path d="m26.34 41.651c.769 0 1.537-.292 2.121-.877l3.534-3.534c.391-.391.391-1.023 0-1.414l-.705-.705.78-.779c.812.538 1.763.829 2.758.829 1.334 0 2.59-.521 3.535-1.465 1.776-1.776 1.735-6.814 1.709-7.807-.015-.531-.442-.959-.974-.974 0 0-.147-.004-.401-.004-2.126 0-5.915.223-7.405 1.713-1.707 1.707-1.919 4.351-.636 6.292l-.781.779-.708-.709c-.391-.391-1.023-.391-1.414 0l-3.534 3.534c-1.17 1.17-1.17 3.073 0 4.244.585.585 1.353.877 2.121.877zm6.366-13.602c.625-.625 2.742-1.06 5.367-1.12-.046 2.049-.381 4.62-1.124 5.363-1.135 1.133-3.106 1.132-4.241.002 0-.001-.001-.001-.001-.002-.001-.001-.002-.001-.002-.001-1.168-1.171-1.168-3.072.001-4.242zm-7.073 11.311c-.39-.391-.39-1.024 0-1.415l2.827-2.827.704.705c.001.001.002.003.003.004s.003.002.004.003l.703.703-2.827 2.827c-.391.389-1.024.389-1.414 0z"/><path d="m18.998 52.018h26c.553 0 1-.447 1-1s-.447-1-1-1h-26c-.553 0-1 .447-1 1s.447 1 1 1z"/><path d="m38.982 53.021h-13.968c-.553 0-1 .447-1 1s.447 1 1 1h13.969c.553 0 1-.447 1-1s-.448-1-1.001-1z"/></svg>