<?xml version="1.0" encoding="iso-8859-1"?>
<!-- Generator: Adobe Illustrator 21.0.0, SVG Export Plug-In . SVG Version: 6.00 Build 0)  -->
<svg xmlns="http://www.w3.org/2000/svg" xmlns:xlink="http://www.w3.org/1999/xlink" version="1.1" id="Capa_1" x="0px" y="0px" viewBox="0 0 512 512" style="enable-background:new 0 0 512 512;" xml:space="preserve" width="512" height="512">
<path d="M497,0.004H15c-8.284,0-15,6.716-15,15v481.991c0,8.284,6.716,15,15,15l482-0.002c8.284,0,15-6.716,15-15V15.004  C512,6.72,505.284,0.004,497,0.004z M305.432,344.282V236.571h107.713v107.711H305.432z M344.288,98.86v107.711H236.576V98.86  H344.288z M482,167.716v107.711h-38.855V167.716H482z M413.145,206.571h-38.857v-38.855h38.857V206.571z M275.432,275.427h-38.856  v-38.855h38.856V275.427z M206.576,137.716H167.72V98.86h38.856V137.716z M206.576,167.716v107.711H98.864V167.716H206.576z   M30,236.571h38.854v107.711H30V236.571z M137.72,344.282H98.864v-38.855h38.855V344.282z M68.856,206.571H30v-38.855h38.856  V206.571z M167.72,305.427h107.712v107.711l-107.712-0.001V305.427z M344.288,413.138h-38.856v-38.855h38.856V413.138z   M443.145,305.427H482v38.855h-38.855V305.427z M482,137.716H374.288V30.004H482V137.716z M344.288,68.86h-38.856V30.004h38.856  V68.86z M167.72,29.996h107.712V68.86H167.72V29.996z M30,30.004h107.712v107.711H30V30.004z M137.712,481.996H30V374.285h107.712  V481.996z M167.72,443.138h38.856v38.854H167.72V443.138z M236.576,443.14h107.712v38.849H236.576V443.14z M482,481.994H374.288  V374.282H482V481.994z"/>















</svg>
