<svg height="512" viewBox="0 0 64 64" width="512" xmlns="http://www.w3.org/2000/svg"><g id="Truck-3" data-name="Truck"><path d="m42 34h4v2h-4z"/><path d="m11 46h2v2h-2z"/><path d="m25 46h2v2h-2z"/><path d="m48 46h2v2h-2z"/><path d="m61.287 29.535-4.847-8.079a3.019 3.019 0 0 0 -2.573-1.456h-14.867a1 1 0 0 0 -1 1v19h-2v-4a1 1 0 0 0 -1-1h-5a1 1 0 0 0 -.707.293l-1.707 1.707h-24.586a1 1 0 0 0 -1 1v8a2 2 0 0 0 2 2h2.09a5.993 5.993 0 0 0 11.82 0h2.18a5.993 5.993 0 0 0 11.82 0h11.18a5.993 5.993 0 0 0 11.82 0h4.09a3 3 0 0 0 3-3v-12.892a5 5 0 0 0 -.713-2.573zm-6.561-7.049 4.508 7.514h-15.234v-8h9.867a1.009 1.009 0 0 1 .859.486zm-16.726 19.514v4h-2v-4zm-26 9a4 4 0 1 1 4-4 4 4 0 0 1 -4 4zm14 0a4 4 0 1 1 4-4 4 4 0 0 1 -4 4zm0-10a6.006 6.006 0 0 0 -5.91 5h-2.18a5.993 5.993 0 0 0 -11.82 0h-2.09v-7h24a1 1 0 0 0 .707-.293l1.707-1.707h3.586v9h-2.09a6.006 6.006 0 0 0 -5.91-5zm23 10a4 4 0 1 1 4-4 4 4 0 0 1 -4 4zm10-5h-4.09a5.993 5.993 0 0 0 -11.82 0h-3.09v-24h2v9a1 1 0 0 0 1 1h16.985c0 .036.015.071.015.108v1.892h-4a2 2 0 0 0 -2 2v2a2 2 0 0 0 2 2h4v2h-3v2h3v1a1 1 0 0 1 -1 1zm1-10v2h-4v-2z"/><path d="m2.594 30.914c.375.167 9.276 4.086 16.406 4.086s16.03-3.919 16.406-4.086a1 1 0 0 0 .594-.914v-16a1 1 0 0 0 -.594-.914c-.376-.167-9.276-4.086-16.406-4.086s-16.031 3.919-16.406 4.086a1 1 0 0 0 -.594.914v16a1 1 0 0 0 .594.914zm7.406.534v-18.9c1.263-.371 2.622-.718 4-.992v20.884c-1.378-.274-2.737-.621-4-.992zm24-16.786v14.676c-2.094.862-9.306 3.662-15 3.662a22.445 22.445 0 0 1 -3-.224v-21.552a22.445 22.445 0 0 1 3-.224c5.694 0 12.906 2.8 15 3.662zm-30 0c.761-.314 2.2-.885 4-1.483v17.642c-1.8-.6-3.239-1.169-4-1.483z"/></g></svg>