<svg id="Layer_3" enable-background="new 0 0 64 64" height="512" viewBox="0 0 64 64" width="512" xmlns="http://www.w3.org/2000/svg"><path d="m58 19h-10.586l-11.981-11.981c.352-.595.567-1.279.567-2.019 0-2.206-1.794-4-4-4s-4 1.794-4 4c0 .74.215 1.424.567 2.019l-11.981 11.981h-10.586c-2.757 0-5 2.243-5 5v34c0 2.757 2.243 5 5 5h52c2.757 0 5-2.243 5-5v-34c0-2.757-2.243-5-5-5zm-26-16c1.103 0 2 .897 2 2s-.897 2-2 2-2-.897-2-2 .897-2 2-2zm-2.019 5.433c.595.352 1.279.567 2.019.567s1.424-.215 2.019-.567l10.567 10.567h-25.172zm31.019 49.567c0 1.654-1.346 3-3 3h-52c-1.654 0-3-1.346-3-3v-34c0-1.654 1.346-3 3-3h52c1.654 0 3 1.346 3 3z"/><path d="m57 23h-50c-1.103 0-2 .897-2 2v32c0 1.103.897 2 2 2h50c1.103 0 2-.897 2-2v-32c0-1.103-.897-2-2-2zm-24 34v-2h7c3.859 0 7-3.141 7-7v-1h-9c-.958 0-1.872.194-2.704.544.39-.449.796-.873 1.189-1.283 1.034-1.076 2.012-2.108 2.366-3.319 3.459-.421 6.149-3.371 6.149-6.942v-5h-1c-.921 0-1.798.183-2.604.508-.526-1.515-1.373-2.899-2.517-4.043l-.879-.879-.879.879c-1.144 1.144-1.991 2.528-2.517 4.043-.806-.325-1.683-.508-2.604-.508h-1v5c0 3.422 2.47 6.273 5.719 6.877-.346.609-.975 1.27-1.675 1.999-.932.969-1.976 2.068-2.773 3.439-1.264-4.25-3.934-5.838-6.037-7.078-1.668-.984-2.843-1.689-3.149-3.329 3.345-.525 5.915-3.419 5.915-6.908v-5h-1c-2.548 0-4.775 1.373-6 3.413-1.225-2.04-3.452-3.413-6-3.413h-1v5c0 3.545 2.652 6.476 6.075 6.932.356 2.767 2.271 3.922 4.143 5.027 1.872 1.104 3.916 2.313 5.001 5.469-1.175-.892-2.634-1.428-4.219-1.428h-9v1c0 3.859 3.141 7 7 7h7v2h-24v-32h50l.002 32zm5-8h6.899c-.465 2.279-2.484 4-4.899 4h-6.899c.464-2.279 2.484-4 4.899-4zm1-10v-1c0-2.415 1.721-4.435 4-4.899v2.899c0 2.414-1.721 4.434-4 4.899zm-1-4.587c-.43-.716-.98-1.351-1.629-1.872.334-1.126.879-2.174 1.629-3.076.75.902 1.295 1.949 1.629 3.076-.649.521-1.199 1.156-1.629 1.872zm-1 3.587v1 1.899c-2.279-.465-4-2.484-4-4.899v-2.899c2.279.464 4 2.484 4 4.899zm-14-4v-1c0-2.415 1.721-4.435 4-4.899v2.899c0 2.414-1.721 4.434-4 4.899zm-2 0v1.899c-2.279-.465-4-2.484-4-4.899v-2.899c2.279.465 4 2.484 4 4.899zm9.899 19h-6.899c-2.415 0-4.435-1.721-4.899-4h6.899c2.415 0 4.435 1.721 4.899 4z"/><path d="m11 40h-2v15h6v-2h-4z"/><path d="m9 36h2v2h-2z"/><path d="m53 27h2v2h-2z"/><path d="m53 31h2v2h-2z"/><path d="m53 35h2v2h-2z"/></svg>