<svg height="512pt" viewBox="0 0 512 512" width="512pt" xmlns="http://www.w3.org/2000/svg"><path d="m503.464844 494.933594h-102.398438v-477.867188c0-9.425781-7.640625-17.066406-17.066406-17.066406h-256c-9.425781 0-17.066406 7.640625-17.066406 17.066406v477.867188h-102.398438c-4.714844 0-8.535156 3.820312-8.535156 8.53125 0 4.714844 3.820312 8.535156 8.535156 8.535156h494.929688c4.714844 0 8.535156-3.820312 8.535156-8.535156 0-4.710938-3.820312-8.53125-8.535156-8.53125zm-341.332032-443.734375h187.734376v443.734375h-187.734376zm204.800782 443.734375v-452.265625c0-4.714844-3.820313-8.535157-8.535156-8.535157h-204.796876c-4.714843 0-8.535156 3.820313-8.535156 8.535157v452.265625h-17.066406v-477.867188h256v477.867188zm0 0"/><path d="m324.265625 290.132812c-4.710937 0-8.53125 3.820313-8.53125 8.535157v25.597656h-119.46875v-214.101563c11.875-2.082031 22.382813-8.933593 29.074219-18.960937 7.28125-9.488281 18.710937-14.855469 30.660156-14.402344 11.945312-.449219 23.367188 4.917969 30.644531 14.402344 6.695313 10.03125 17.207031 16.882813 29.089844 18.960937v103.167969h17.066406v-110.933593c0-4.710938-3.820312-8.53125-8.535156-8.53125-9.316406.171874-18.09375-4.355469-23.355469-12.050782-10.394531-14.339844-27.207031-22.605468-44.910156-22.082031-17.695312-.519531-34.5 7.746094-44.894531 22.074219-5.261719 7.703125-14.046875 12.234375-23.371094 12.058594-4.714844 0-8.535156 3.820312-8.535156 8.53125v230.402343c0 4.710938 3.820312 8.53125 8.535156 8.53125h136.53125c4.714844 0 8.535156-3.820312 8.535156-8.53125v-34.132812c0-4.714844-3.820312-8.535157-8.535156-8.535157zm0 0"/><path d="m324.265625 358.398438h-136.53125c-4.714844 0-8.535156 3.820312-8.535156 8.535156v102.398437c0 4.714844 3.820312 8.535157 8.535156 8.535157h136.53125c4.714844 0 8.535156-3.820313 8.535156-8.535157v-102.398437c0-4.714844-3.820312-8.535156-8.535156-8.535156zm-8.53125 102.402343h-119.46875v-85.335937h119.46875zm0 0"/><path d="m315.734375 238.933594c-14.140625 0-25.601563 11.460937-25.601563 25.601562 0 4.710938-3.820312 8.53125-8.53125 8.53125-4.714843 0-8.535156 3.820313-8.535156 8.535156 0 4.710938 3.820313 8.53125 8.535156 8.53125 14.136719 0 25.597657-11.460937 25.597657-25.597656 0-4.714844 3.820312-8.535156 8.535156-8.535156 4.710937 0 8.53125 3.820312 8.53125 8.535156 0 4.710938 3.820313 8.53125 8.535156 8.53125 4.710938 0 8.53125-3.820312 8.53125-8.53125 0-14.140625-11.460937-25.601562-25.597656-25.601562zm0 0"/></svg>