<svg xmlns="http://www.w3.org/2000/svg" viewBox="0 0 242 252"><defs><style>.cls-1{fill:#fff;}</style></defs><title>Asset 1</title><g id="Layer_2" data-name="Layer 2"><g id="Layer_1-2" data-name="Layer 1"><path class="cls-1" d="M0,0H242q0,126,0,252H0Q0,126,0,0ZM55.1,159.77C89.81,139.88,113.91,111.5,123,71.54c9.16,40.08,33.14,68.28,68,88.26-14.11,23.35-20.34,48.3-21.32,74.9h64.95V11.38H11.25v223.2H76.06C76.2,216.48,71,186.1,55.1,159.77Z"/><path d="M55.1,159.77c15.95,26.34,21.1,56.72,21,74.82H11.25V11.38H234.66V234.7H169.71c1-26.61,7.21-51.55,21.32-74.9-34.85-20-58.83-48.17-68-88.26C113.91,111.5,89.81,139.88,55.1,159.77ZM28.8,45.65H217.05V28.89H28.8Zm76.9,17.93c-8.77,0-17.22-.13-25.65.18-1,0-2.45,2.4-2.68,3.84a228.13,228.13,0,0,1-23.09,69.34,31.38,31.38,0,0,0-1.12,2.94C78.79,127.21,103.38,91.67,105.7,63.58Zm34.61,0c2.48,28.59,30.55,68.76,52.61,75.79-12.05-23.09-20.5-47.14-24.46-72.7-.17-1.13-1.58-2.93-2.46-3C157.56,63.49,149.11,63.58,140.31,63.58Zm45.55.23c4.65,29.24,14.62,55.66,31.21,79.68V63.81Zm-157,79.72A187.23,187.23,0,0,0,60,64H28.9ZM57,217.07a133.27,133.27,0,0,0-15.88-46.3c-2.9-5.26-6.5-7-12.18-5.23v51.53Zm160,.1V165.54c-6.15-2-9.56.39-12.37,5.49-7.29,13.24-12.6,27.12-15.08,42-.21,1.24-.18,2.51-.29,4.09Z"/><path class="cls-1" d="M28.8,45.65V28.89H217.05V45.65Z"/><path class="cls-1" d="M105.7,63.58c-2.31,28.09-26.91,63.63-52.54,76.3a31.38,31.38,0,0,1,1.12-2.94A228.13,228.13,0,0,0,77.36,67.6c.23-1.45,1.71-3.81,2.68-3.84C88.48,63.45,96.93,63.58,105.7,63.58Z"/><path class="cls-1" d="M140.31,63.58c8.8,0,17.25-.09,25.69.13.87,0,2.28,1.83,2.46,3,4,25.56,12.4,49.6,24.46,72.7C170.86,132.35,142.79,92.17,140.31,63.58Z"/><path class="cls-1" d="M185.86,63.81h31.21v79.68C200.48,119.46,190.51,93,185.86,63.81Z"/><path class="cls-1" d="M28.9,143.53V64H60A187.23,187.23,0,0,1,28.9,143.53Z"/><path class="cls-1" d="M57,217.07H29V165.54c5.68-1.75,9.28,0,12.18,5.23A133.27,133.27,0,0,1,57,217.07Z"/><path class="cls-1" d="M217.06,217.17H189.33c.11-1.58.08-2.85.29-4.09,2.48-14.93,7.79-28.81,15.08-42,2.81-5.1,6.22-7.45,12.37-5.49Z"/></g></g></svg>