<?xml version="1.0" encoding="iso-8859-1"?>
<!-- Generator: Adobe Illustrator 19.0.0, SVG Export Plug-In . SVG Version: 6.00 Build 0)  -->
<svg version="1.1" id="Capa_1" xmlns="http://www.w3.org/2000/svg" xmlns:xlink="http://www.w3.org/1999/xlink" x="0px" y="0px"
	 viewBox="0 0 512 512" style="enable-background:new 0 0 512 512;" xml:space="preserve">
<g>
	<g>
		<path d="M263.046,2.936c-1.86-1.86-4.44-2.93-7.07-2.93s-5.21,1.07-7.07,2.93c-1.859,1.86-2.93,4.44-2.93,7.07
			s1.07,5.21,2.93,7.07c1.86,1.86,4.441,2.93,7.07,2.93c2.63,0,5.21-1.07,7.07-2.93c1.859-1.86,2.93-4.44,2.93-7.07
			S264.906,4.796,263.046,2.936z"/>
	</g>
</g>
<g>
	<g>
		<path d="M196.228,137.523c-1.87-1.86-4.439-2.93-7.07-2.93c-2.63,0-5.21,1.07-7.08,2.93c-1.859,1.86-2.92,4.44-2.92,7.07
			c0,2.63,1.061,5.21,2.92,7.08c1.87,1.86,4.44,2.92,7.08,2.92c2.631,0,5.21-1.06,7.07-2.92c1.86-1.87,2.93-4.45,2.93-7.08
			C199.158,141.963,198.089,139.383,196.228,137.523z"/>
	</g>
</g>
<g>
	<g>
		<path d="M168.601,165.15c-3.906-3.906-10.236-3.906-14.142,0l-89.123,89.123c-3.905,3.905-3.905,10.237,0,14.143
			c1.953,1.952,4.512,2.929,7.071,2.929s5.118-0.977,7.071-2.929l89.123-89.123C172.506,175.388,172.506,169.056,168.601,165.15z"/>
	</g>
</g>
<g>
	<g>
		<path d="M472.001,471.932H502c5.522,0,10-4.478,10-10V66.005c0-0.091-0.011-0.18-0.014-0.271V10.006c0-5.523-4.478-10-10-10
			h-195.01c-5.522,0-10,4.477-10,10c0,5.523,4.478,10,10,10h185.01v35.999H19.999V20.006h188.619c5.522,0,10-4.477,10-10
			c0-5.523-4.478-10-10-10H10c-5.522,0-10,4.477-10,10v55.998v395.927c0,5.522,4.478,10,10,10h338.005v18.313
			c0,0.59,0.03,1.172,0.077,1.75H144.593c-5.522,0-10,4.478-10,10s4.478,10,10,10H502c5.522,0,10-4.478,10-10s-4.478-10-10-10
			h-30.076c0.046-0.578,0.077-1.16,0.077-1.75V471.932z M246.007,451.932H19.999v-25.083l186.304-186.304
			c3.905-3.905,3.905-10.237,0-14.143c-3.906-3.905-10.236-3.905-14.143,0L19.999,398.564V76.004h226.008V451.932z M452.002,490.243
			c0,0.965-0.785,1.75-1.75,1.75h-80.498c-0.965,0-1.75-0.785-1.75-1.75v-98.247h83.998V490.243z M391.884,371.996h-8.948
			c-2.692-13.068-6.387-25.833-10.991-37.945C382.532,343.693,389.751,357.308,391.884,371.996z M380.057,275.024
			c18.758,13.458,30.461,35.328,30.823,58.778c-1.576,5.846-2.833,11.792-3.754,17.812c-2.549-6.754-5.936-13.152-10.05-18.995
			C393.514,312.783,387.823,293.504,380.057,275.024z M427.63,293.702c-1.228,2.105-2.396,4.244-3.529,6.401
			c-1.425-3.532-3.063-6.969-4.899-10.295c0.024-0.226,0.053-0.451,0.062-0.682c0.036-0.901,0.867-17.632,12.111-30.493
			c-2.562,10.987-3.881,22.27-3.881,33.499C427.495,292.667,427.549,293.189,427.63,293.702z M449.949,295.737
			c-7.215,24.608-11.948,51.803-12.91,76.259H425.33C426.136,344.54,434.854,318.091,449.949,295.737z M462.001,371.996h-4.945
			c1.702-39.2,14.039-87.071,30.032-114.952c0.136-0.236,0.292-0.542,0.408-0.789c1.94-4.132,0.836-9.055-2.684-11.962
			c-3.521-2.908-8.563-3.062-12.253-0.375c-7.804,5.681-15.023,12.008-21.609,18.873c1.948-8.237,4.693-16.283,8.216-23.934
			c1.775-3.857,0.921-8.416-2.131-11.369c-3.053-2.952-7.636-3.656-11.434-1.753l-10.739,5.382
			c-18.435,9.248-27.317,24.87-31.603,37.486c-7.357-7.355-15.972-13.545-25.612-18.153l-15.632-7.471
			c-3.92-1.874-8.6-1.002-11.583,2.156c-2.982,3.158-3.585,7.881-1.491,11.687l1.044,1.897c8.791,15.977,15.784,32.76,20.934,50.138
			c-1.294-0.719-2.603-1.41-3.941-2.049l-13.109-6.265c-3.92-1.872-8.602-1.001-11.583,2.158c-2.982,3.159-3.584,7.882-1.488,11.688
			l0.874,1.588c9.184,16.695,16.29,35.88,20.808,56.017h-4.479c-5.522,0-10,4.478-10,10v69.936h-81.998V76.004h225.994v375.928
			h-19.999v-69.936C472.001,376.474,467.523,371.996,462.001,371.996z"/>
	</g>
</g>
<g>
	<g>
		<path d="M105.211,494.923c-1.87-1.861-4.441-2.93-7.07-2.93c-2.63,0-5.21,1.069-7.07,2.93c-1.87,1.86-2.93,4.44-2.93,7.07
			s1.06,5.21,2.93,7.069c1.86,1.86,4.44,2.931,7.07,2.931c2.63,0,5.21-1.07,7.07-2.931c1.859-1.859,2.93-4.439,2.93-7.069
			C108.141,499.363,107.071,496.783,105.211,494.923z"/>
	</g>
</g>
<g>
</g>
<g>
</g>
<g>
</g>
<g>
</g>
<g>
</g>
<g>
</g>
<g>
</g>
<g>
</g>
<g>
</g>
<g>
</g>
<g>
</g>
<g>
</g>
<g>
</g>
<g>
</g>
<g>
</g>
</svg>
