<svg xmlns="http://www.w3.org/2000/svg" viewBox="0 0 224.03 224.03"><title>Asset 1</title><g id="Layer_2" data-name="Layer 2"><g id="Layer_1-2" data-name="Layer 1"><path d="M37.73,75.14c0-8.26-.06-15.73,0-23.19.09-9.22,5-14.12,14.27-14.2,7.46-.07,14.93,0,23.13,0,0-7.54,0-14.63,0-21.72,0-10.95,5-16,15.76-16q58.72,0,117.43,0C219,0,224,5,224,15.5q0,59,0,117.93c0,10.21-5.17,15.39-15.31,15.45-7.28,0-14.56,0-22.4,0,0,7.86,0,15.15,0,22.44-.05,10.21-4.78,14.92-15,15-7.28,0-14.57,0-22.38,0,0,7.72,0,14.84,0,22,0,10.61-5.06,15.75-15.51,15.75q-59,0-117.93,0C5.13,224,0,219,0,208.77Q0,149.56,0,90.34c0-9.9,5.22-15.13,15.05-15.19C22.38,75.1,29.7,75.14,37.73,75.14ZM8.89,149.51q0,29,0,58c0,6.87.7,7.62,7.33,7.62q58.49,0,117,0c5.7,0,6.79-1.06,6.79-6.67q0-58.49,0-117c0-6.41-1.08-7.44-7.65-7.45Q74.11,84,15.87,84c-6,0-7,1-7,7Q8.88,120.27,8.89,149.51ZM46.36,75.14h6.17q40,0,80,0c11.45,0,16.36,4.94,16.37,16.46q0,40,0,80c0,1.92,0,3.83,0,6.12H170.1c6.44,0,7.61-1.15,7.61-7.51q0-26.5,0-53c0-1.33-.4-2.95.2-3.93.93-1.52,2.73-3.75,3.87-3.59,1.62.23,3.41,2.11,4.32,3.73.71,1.29.22,3.25.23,4.92,0,7.11,0,14.22,0,21.67,8,0,15.27-.11,22.58,0,4.49.09,6.26-1.86,6.25-6.3q-.1-59,0-118c0-6-.91-6.85-7.09-6.85q-33,0-66,0c-17.16,0-34.33,0-51.49,0-3.28,0-6.34.43-6.43,4.47-.19,7.95-.06,15.9-.06,24.38h5.87q41,0,82,0c9.36,0,14.26,4.87,14.37,14.1.08,7,0,14,0,21,0,3.18-.77,6-4.46,5.88-3.34-.08-4.18-2.72-4.16-5.71,0-6,0-12,0-18,0-7.8-.88-8.7-8.5-8.7H105.73c-17.5,0-35,0-52.49,0-3.47,0-6.7.5-6.82,4.73C46.2,58.82,46.36,66.62,46.36,75.14Z"/></g></g></svg>