<svg id="Layer_1" data-name="Layer 1" xmlns="http://www.w3.org/2000/svg" viewBox="0 0 500 500"><defs><style>.cls-1{fill:#fff;}</style></defs><title>Artboard 1</title><path class="cls-1" d="M379,392H124.08V110.15H379ZM176.71,217.13c-8,0-15.35,0-22.66,0-9.84.06-15,5.3-15.05,15.19q0,59.22,0,118.43C139,361,144.11,366,154.43,366q59,0,117.93,0c10.45,0,15.48-5.14,15.51-15.75,0-7.12,0-14.25,0-22,7.81,0,15.09,0,22.38,0,10.25-.05,15-4.76,15-15,0-7.29,0-14.58,0-22.44,7.84,0,15.12,0,22.4,0,10.15-.05,15.31-5.24,15.31-15.45q0-59,0-117.93C363,147,358,142,347.32,142q-58.72,0-117.43,0c-10.79,0-15.74,5-15.76,16,0,7.09,0,14.18,0,21.72-8.2,0-15.67-.06-23.13,0-9.26.09-14.18,5-14.27,14.2C176.65,201.4,176.71,208.87,176.71,217.13Z"/><path d="M176.71,217.13c0-8.26-.06-15.73,0-23.19.09-9.22,5-14.12,14.27-14.2,7.46-.07,14.93,0,23.13,0,0-7.54,0-14.63,0-21.72,0-10.95,5-16,15.76-16q58.72,0,117.43,0C358,142,363,147,363,157.49q0,59,0,117.93c0,10.21-5.17,15.39-15.31,15.45-7.28,0-14.56,0-22.4,0,0,7.86,0,15.15,0,22.44-.05,10.21-4.78,14.92-15,15-7.28,0-14.57,0-22.38,0,0,7.72,0,14.84,0,22,0,10.61-5.06,15.75-15.51,15.75q-59,0-117.93,0c-10.31,0-15.42-5-15.43-15.24q0-59.22,0-118.43c0-9.9,5.22-15.13,15.05-15.19C161.37,217.09,168.68,217.13,176.71,217.13ZM147.88,291.5q0,29,0,58c0,6.87.7,7.62,7.33,7.62q58.49,0,117,0c5.7,0,6.79-1.06,6.79-6.67q0-58.49,0-117c0-6.41-1.08-7.44-7.65-7.45q-58.24,0-116.48,0c-6,0-7,1-7,7Q147.86,262.25,147.88,291.5Zm37.47-74.37h6.17q40,0,80,0c11.45,0,16.36,4.94,16.37,16.46q0,40,0,80c0,1.92,0,3.83,0,6.12h21.21c6.44,0,7.61-1.15,7.61-7.51q0-26.5,0-53c0-1.33-.4-2.95.2-3.93.93-1.52,2.73-3.75,3.87-3.59,1.62.23,3.41,2.11,4.32,3.73.71,1.29.22,3.25.23,4.92,0,7.11,0,14.22,0,21.67,8,0,15.27-.11,22.58,0,4.49.09,6.26-1.86,6.25-6.3q-.1-59,0-118c0-6-.91-6.85-7.09-6.85q-33,0-66,0c-17.16,0-34.33,0-51.49,0-3.28,0-6.34.43-6.43,4.47-.19,7.95-.06,15.9-.06,24.38h5.87q41,0,82,0c9.36,0,14.26,4.87,14.37,14.1.08,7,0,14,0,21,0,3.18-.77,6-4.46,5.88-3.34-.08-4.18-2.72-4.16-5.71,0-6,0-12,0-18,0-7.8-.88-8.7-8.5-8.7H244.71c-17.5,0-35,0-52.49,0-3.47,0-6.7.5-6.82,4.73C185.18,200.8,185.34,208.61,185.34,217.12Z"/><path class="cls-1" d="M147.88,291.5q0-29.24,0-58.49c0-6,1-7,7-7q58.24,0,116.48,0c6.57,0,7.65,1,7.65,7.45q0,58.49,0,117c0,5.61-1.09,6.67-6.79,6.67q-58.49,0-117,0c-6.63,0-7.32-.75-7.33-7.62Q147.86,320.49,147.88,291.5Zm87,55.63c1.16-.94,2.81-1.64,3.24-2.8.49-1.33.49-3.58-.33-4.52a96.39,96.39,0,0,0-11.29-11.26c-1.22-1-4.52-.7-6,.3-.88.61-.85,4.35.14,5.55a131.38,131.38,0,0,0,10.85,11C232.31,346.17,233.53,346.46,234.89,347.13Zm35.33-94.9c-.35-1.14-.36-1.94-.77-2.36-4.13-4.27-8.17-8.66-12.65-12.54-.85-.74-4.2,0-5.09,1.07a5.41,5.41,0,0,0,0,5.24,103.54,103.54,0,0,0,11.17,11.28c1,.91,3.45.9,5,.43C268.95,255,269.55,253.18,270.22,252.23Zm-109.36,14c-1.36,1.13-3.24,1.93-3.57,3.15a6.13,6.13,0,0,0,.91,4.92,71.93,71.93,0,0,0,10.23,10.13c1.45,1.12,4.32.4,6.54.52-.18-2.21.43-5-.7-6.5-2.82-3.65-6.39-6.72-9.76-9.92A23.44,23.44,0,0,0,160.86,266.21Zm15.78,34.89c-1-1.24-1.76-3.12-3-3.49a6,6,0,0,0-4.9.83,72.23,72.23,0,0,0-10.18,10.14c-1.13,1.44-.46,4.29-.61,6.5,2.22-.13,5.08.58,6.53-.54,3.77-2.9,7-6.57,10.3-10C175.55,303.73,175.88,302.55,176.64,301.1Zm73.57-18.78c.89,1.15,1.58,2.92,2.67,3.22,1.53.42,3.9.36,5-.57A84,84,0,0,0,268.65,274c1-1.24.67-4.5-.33-6-.62-.9-4.32-.92-5.5.05a129.46,129.46,0,0,0-11,10.8C251.13,279.71,250.86,280.94,250.2,282.32Zm-42.75,30.44c-.2-1.14-.12-1.8-.4-2.09-4.38-4.49-8.69-9.06-13.36-13.23-.67-.6-3.76.34-4.6,1.43s-.93,3.87-.1,4.83a125.89,125.89,0,0,0,11.57,11.67c.94.84,3.24.81,4.59.31C206.26,315.27,206.88,313.55,207.45,312.77ZM270.31,331c-.8-1-1.46-2.72-2.59-3.14-1.33-.5-3.61-.52-4.54.3a108,108,0,0,0-11.52,11.64c-.89,1.08-.46,4.28.56,5.56.75.94,4.13,1.15,5.14.28A163.69,163.69,0,0,0,269,334.12C269.63,333.46,269.77,332.34,270.31,331ZM223.9,316.36c.47-.15,1.48-.16,2-.67,4.16-4,8.39-8,12.19-12.35.74-.85.33-3.95-.61-4.72-1.2-1-4.23-1.56-5.16-.77A105.41,105.41,0,0,0,220,310C217.87,312.59,220.25,316.31,223.9,316.36Zm-47.73-75.14c-.16-4-4.1-6-6.92-3.55a96.41,96.41,0,0,0-11.49,11.66c-.88,1.06-.37,4.29.67,5.56.76.92,4.12,1,5.16.12a163.56,163.56,0,0,0,11.67-11.51A5.78,5.78,0,0,0,176.17,241.22Zm47.74,14.87c.33-.09,1.16-.05,1.57-.46,4.36-4.3,8.79-8.55,12.82-13.16.64-.73-.15-3.77-1.2-4.63s-4-1.2-4.87-.41A111.11,111.11,0,0,0,220,249.76C217.84,252.31,220.29,256.08,223.91,256.09Zm-32.13,30.34c1.29-.38,2.3-.38,2.81-.89,4.12-4,8.34-8,12.06-12.42.76-.91.12-4.18-1-5.13s-4.15-1-5.19-.1A117.77,117.77,0,0,0,189,279.48c-.81.92-.78,3.19-.27,4.49C189.14,285.09,190.82,285.72,191.78,286.44Zm31.84-20.19c-1.39,1.06-3.3,1.79-3.67,3a6,6,0,0,0,.75,4.93,75,75,0,0,0,10.59,10.47c1.36,1.05,4.3.07,6.51,0-.23-2.07.26-4.71-.83-6.09-2.87-3.61-6.4-6.71-9.75-9.93A26,26,0,0,0,223.62,266.25Zm-51.34,80.9c1.21-1,3.08-1.9,3.39-3.14a6.22,6.22,0,0,0-1-4.91A72.61,72.61,0,0,0,164.39,329c-1.42-1.1-4.3-.33-6.51-.41.11,2.1-.58,4.84.49,6.16a113.73,113.73,0,0,0,10.47,10.63C169.63,346.08,170.83,346.4,172.27,347.14Zm35.61-16c-1.13-1.29-2-3.14-3.2-3.43a6.24,6.24,0,0,0-4.87,1.11c-3.61,3.15-6.89,6.69-10.23,10.14-2,2.11-2.52,4.82,0,6.39a6.49,6.49,0,0,0,6-.31,102.38,102.38,0,0,0,10.26-10.09C206.68,334,207.06,332.68,207.88,331.12Zm-.37-78.69c-.27-1.2-.2-2-.59-2.45-4.25-4.37-8.45-8.81-13-12.84-.74-.66-3.95.09-4.65,1.12-.86,1.25-1,4.15-.17,5.19a118.35,118.35,0,0,0,11.5,11.65c.93.84,3.21.85,4.54.35C206.24,255,206.86,253.32,207.51,252.43Zm46.82,44.26c-1,.82-2.7,1.51-3.1,2.64-.48,1.35-.47,3.61.36,4.55a107.3,107.3,0,0,0,11.63,11.47c1.06.88,4.28.4,5.54-.63.92-.75,1.05-4.11.17-5.14A163.2,163.2,0,0,0,257.46,298C256.81,297.34,255.68,297.22,254.33,296.7Z"/><path class="cls-1" d="M185.34,217.12c0-8.52-.16-16.32.06-24.11.12-4.23,3.35-4.74,6.82-4.73,17.5,0,35,0,52.49,0H308.2c7.62,0,8.49.9,8.5,8.7,0,6,0,12,0,18,0,3,.82,5.62,4.16,5.71,3.69.09,4.49-2.69,4.46-5.88-.06-7,0-14,0-21-.11-9.22-5-14.08-14.37-14.1q-41-.08-82,0H223c0-8.48-.13-16.43.06-24.38.1-4,3.15-4.48,6.43-4.47,17.16,0,34.33,0,51.49,0q33,0,66,0c6.18,0,7.09.86,7.09,6.85q0,59,0,118c0,4.44-1.76,6.39-6.25,6.3-7.31-.15-14.62,0-22.58,0,0-7.45,0-14.56,0-21.67,0-1.67.49-3.63-.23-4.92-.9-1.63-2.69-3.5-4.32-3.73-1.14-.16-2.94,2.08-3.87,3.59-.6,1-.2,2.6-.2,3.93q0,26.5,0,53c0,6.37-1.17,7.51-7.61,7.51H287.88c0-2.29,0-4.2,0-6.12q0-40,0-80c0-11.52-4.92-16.45-16.37-16.46q-40,0-80,0Zm136.43,14-1.95.08c-1,1.75-2.9,3.58-2.73,5.21.14,1.4,2.67,3.6,4.07,3.55s3.71-2.47,3.74-3.88C324.94,234.47,322.91,232.8,321.77,231.14Z"/><path d="M234.89,347.13c-1.36-.67-2.58-1-3.36-1.71a131.38,131.38,0,0,1-10.85-11c-1-1.2-1-4.94-.14-5.55,1.46-1,4.75-1.3,6-.3a96.39,96.39,0,0,1,11.29,11.26c.82.94.82,3.19.33,4.52C237.7,345.49,236,346.19,234.89,347.13Z"/><path d="M270.22,252.23c-.67,1-1.27,2.78-2.35,3.12-1.5.48-3.91.48-5-.43a103.54,103.54,0,0,1-11.17-11.28,5.41,5.41,0,0,1,0-5.24c.89-1.1,4.24-1.82,5.09-1.07,4.47,3.89,8.51,8.27,12.65,12.54C269.86,250.28,269.87,251.09,270.22,252.23Z"/><path d="M160.86,266.21a23.44,23.44,0,0,1,3.65,2.3c3.36,3.2,6.94,6.27,9.76,9.92,1.14,1.47.52,4.29.7,6.5-2.22-.12-5.1.6-6.54-.52a71.93,71.93,0,0,1-10.23-10.13,6.13,6.13,0,0,1-.91-4.92C157.62,268.13,159.49,267.34,160.86,266.21Z"/><path d="M176.64,301.1c-.76,1.44-1.09,2.63-1.84,3.41-3.33,3.46-6.53,7.13-10.3,10-1.46,1.12-4.31.42-6.53.54.15-2.21-.52-5.06.61-6.5a72.23,72.23,0,0,1,10.18-10.14,6,6,0,0,1,4.9-.83C174.87,298,175.64,299.86,176.64,301.1Z"/><path d="M250.2,282.32c.66-1.38.92-2.61,1.66-3.38a129.46,129.46,0,0,1,11-10.8c1.18-1,4.88-.95,5.5-.05,1,1.45,1.32,4.72.33,6A84,84,0,0,1,257.85,285c-1.08.93-3.44,1-5,.57C251.78,285.25,251.1,283.47,250.2,282.32Z"/><path d="M207.45,312.77c-.58.79-1.19,2.5-2.3,2.92-1.35.5-3.65.53-4.59-.31A125.89,125.89,0,0,1,189,303.71c-.83-1-.72-3.76.1-4.83s3.93-2,4.6-1.43c4.67,4.17,9,8.74,13.36,13.23C207.34,311,207.25,311.62,207.45,312.77Z"/><path d="M270.31,331c-.54,1.34-.68,2.46-1.31,3.12a163.69,163.69,0,0,1-11.64,11.53c-1,.86-4.39.66-5.14-.28-1-1.28-1.45-4.48-.56-5.56a108,108,0,0,1,11.52-11.64c.93-.83,3.21-.8,4.54-.3C268.85,328.28,269.51,330,270.31,331Z"/><path d="M223.9,316.36c-3.65-.05-6-3.78-3.89-6.32a105.41,105.41,0,0,1,12.31-12.19c.93-.79,4-.22,5.16.77.94.78,1.35,3.87.61,4.72-3.8,4.35-8,8.33-12.19,12.35C225.38,316.2,224.38,316.21,223.9,316.36Z"/><path d="M176.17,241.22a5.78,5.78,0,0,1-.9,2.29A163.56,163.56,0,0,1,163.6,255c-1,.89-4.41.79-5.16-.12-1-1.27-1.55-4.5-.67-5.56a96.41,96.41,0,0,1,11.49-11.66C172.07,235.25,176,237.25,176.17,241.22Z"/><path d="M223.91,256.09c-3.62,0-6.07-3.78-4-6.34a111.11,111.11,0,0,1,12.27-12.32c.9-.79,3.79-.48,4.87.41s1.84,3.9,1.2,4.63c-4,4.61-8.46,8.85-12.82,13.16C225.07,256,224.24,256,223.91,256.09Z"/><path d="M191.78,286.44c-1-.71-2.64-1.34-3.07-2.46-.51-1.31-.55-3.57.27-4.49A117.77,117.77,0,0,1,200.5,267.9c1-.9,4.15-.81,5.19.1s1.72,4.22,1,5.13c-3.71,4.4-7.93,8.38-12.06,12.42C194.08,286.05,193.06,286.05,191.78,286.44Z"/><path d="M223.62,266.25a26,26,0,0,1,3.6,2.39c3.35,3.21,6.88,6.31,9.75,9.93,1.1,1.38.6,4,.83,6.09-2.22.05-5.15,1-6.51,0a75,75,0,0,1-10.59-10.47,6,6,0,0,1-.75-4.93C220.32,268,222.23,267.31,223.62,266.25Z"/><path d="M172.27,347.14c-1.44-.74-2.64-1.06-3.42-1.81a113.73,113.73,0,0,1-10.47-10.63c-1.07-1.33-.38-4.07-.49-6.16,2.21.08,5.08-.69,6.51.41a72.61,72.61,0,0,1,10.24,10.14,6.22,6.22,0,0,1,1,4.91C175.35,345.25,173.48,346.1,172.27,347.14Z"/><path d="M207.88,331.12c-.82,1.56-1.2,2.9-2,3.8A102.38,102.38,0,0,1,195.57,345a6.49,6.49,0,0,1-6,.31c-2.53-1.57-2.05-4.29,0-6.39,3.34-3.45,6.62-7,10.23-10.14a6.24,6.24,0,0,1,4.87-1.11C205.9,328,206.76,329.83,207.88,331.12Z"/><path d="M207.51,252.43c-.65.89-1.27,2.6-2.38,3-1.33.5-3.61.48-4.54-.35a118.35,118.35,0,0,1-11.5-11.65c-.88-1-.69-3.93.17-5.19.7-1,3.9-1.78,4.65-1.12,4.56,4,8.76,8.47,13,12.84C207.31,250.39,207.24,251.24,207.51,252.43Z"/><path d="M254.33,296.7c1.35.52,2.48.64,3.12,1.26a163.2,163.2,0,0,1,11.48,11.62c.88,1,.75,4.39-.17,5.14-1.26,1-4.48,1.51-5.54.63a107.3,107.3,0,0,1-11.63-11.47c-.84-.94-.84-3.21-.36-4.55C251.63,298.2,253.3,297.52,254.33,296.7Z"/><path d="M321.77,231.14c1.14,1.66,3.17,3.33,3.13,5,0,1.42-2.36,3.83-3.74,3.88s-3.93-2.14-4.07-3.55c-.16-1.63,1.73-3.47,2.73-5.21Z"/></svg>