<svg xmlns="http://www.w3.org/2000/svg" viewBox="0 0 224.03 224.03"><title>Asset 2</title><g id="Layer_2" data-name="Layer 2"><g id="Layer_1-2" data-name="Layer 1"><path d="M37.73,75.14c0-8.26-.06-15.73,0-23.19.09-9.22,5-14.12,14.27-14.2,7.46-.07,14.93,0,23.13,0,0-7.54,0-14.63,0-21.72,0-10.95,5-16,15.76-16q58.72,0,117.43,0C219,0,224,5,224,15.5q0,59,0,117.93c0,10.21-5.17,15.39-15.31,15.45-7.28,0-14.56,0-22.4,0,0,7.86,0,15.15,0,22.44-.05,10.21-4.78,14.92-15,15-7.28,0-14.57,0-22.38,0,0,7.72,0,14.84,0,22,0,10.61-5.06,15.75-15.51,15.75q-59,0-117.93,0C5.13,224,0,219,0,208.77Q0,149.56,0,90.34c0-9.9,5.22-15.13,15.05-15.19C22.38,75.1,29.7,75.14,37.73,75.14ZM8.89,149.51q0,29,0,58c0,6.87.7,7.62,7.33,7.62q58.49,0,117,0c5.7,0,6.79-1.06,6.79-6.67q0-58.49,0-117c0-6.41-1.08-7.44-7.65-7.45Q74.11,84,15.87,84c-6,0-7,1-7,7Q8.88,120.27,8.89,149.51ZM46.36,75.14h6.17q40,0,80,0c11.45,0,16.36,4.94,16.37,16.46q0,40,0,80c0,1.92,0,3.83,0,6.12H170.1c6.44,0,7.61-1.15,7.61-7.51q0-26.5,0-53c0-1.33-.4-2.95.2-3.93.93-1.52,2.73-3.75,3.87-3.59,1.62.23,3.41,2.11,4.32,3.73.71,1.29.22,3.25.23,4.92,0,7.11,0,14.22,0,21.67,8,0,15.27-.11,22.58,0,4.49.09,6.26-1.86,6.25-6.3q-.1-59,0-118c0-6-.91-6.85-7.09-6.85q-33,0-66,0c-17.16,0-34.33,0-51.49,0-3.28,0-6.34.43-6.43,4.47-.19,7.95-.06,15.9-.06,24.38h5.87q41,0,82,0c9.36,0,14.26,4.87,14.37,14.1.08,7,0,14,0,21,0,3.18-.77,6-4.46,5.88-3.34-.08-4.18-2.72-4.16-5.71,0-6,0-12,0-18,0-7.8-.88-8.7-8.5-8.7H105.73c-17.5,0-35,0-52.49,0-3.47,0-6.7.5-6.82,4.73C46.2,58.82,46.36,66.62,46.36,75.14Z"/><path d="M95.91,205.14c-1.36-.67-2.58-1-3.36-1.71a131.38,131.38,0,0,1-10.85-11c-1-1.2-1-4.94-.14-5.55,1.46-1,4.75-1.3,6-.3a96.39,96.39,0,0,1,11.29,11.26c.82.94.82,3.19.33,4.52C98.72,203.5,97.06,204.2,95.91,205.14Z"/><path d="M131.24,110.24c-.67,1-1.27,2.78-2.35,3.12-1.5.48-3.91.48-5-.43a103.54,103.54,0,0,1-11.17-11.28,5.41,5.41,0,0,1,0-5.24c.89-1.1,4.24-1.82,5.09-1.07,4.47,3.89,8.51,8.27,12.65,12.54C130.88,108.3,130.89,109.1,131.24,110.24Z"/><path d="M21.88,124.22a23.44,23.44,0,0,1,3.65,2.3c3.36,3.2,6.94,6.27,9.76,9.92,1.14,1.47.52,4.29.7,6.5-2.22-.12-5.1.6-6.54-.52a71.93,71.93,0,0,1-10.23-10.13,6.13,6.13,0,0,1-.91-4.92C18.64,126.15,20.51,125.35,21.88,124.22Z"/><path d="M37.65,159.12c-.76,1.44-1.09,2.63-1.84,3.41-3.33,3.46-6.53,7.13-10.3,10-1.46,1.12-4.31.42-6.53.54.15-2.21-.52-5.06.61-6.5a72.23,72.23,0,0,1,10.18-10.14,6,6,0,0,1,4.9-.83C35.89,156,36.66,157.87,37.65,159.12Z"/><path d="M111.22,140.34c.66-1.38.92-2.61,1.66-3.38a129.46,129.46,0,0,1,11-10.8c1.18-1,4.88-.95,5.5-.05,1,1.45,1.32,4.72.33,6A84,84,0,0,1,118.87,143c-1.08.93-3.44,1-5,.57C112.8,143.26,112.12,141.49,111.22,140.34Z"/><path d="M68.47,170.78c-.58.79-1.19,2.5-2.3,2.92-1.35.5-3.65.53-4.59-.31A125.89,125.89,0,0,1,50,161.72c-.83-1-.72-3.76.1-4.83s3.93-2,4.6-1.43c4.67,4.17,9,8.74,13.36,13.23C68.35,169,68.27,169.64,68.47,170.78Z"/><path d="M131.33,189c-.54,1.34-.68,2.46-1.31,3.12a163.69,163.69,0,0,1-11.64,11.53c-1,.86-4.39.66-5.14-.28-1-1.28-1.45-4.48-.56-5.56a108,108,0,0,1,11.52-11.64c.93-.83,3.21-.8,4.54-.3C129.87,186.3,130.52,188,131.33,189Z"/><path d="M84.92,174.38c-3.65-.05-6-3.78-3.89-6.32a105.41,105.41,0,0,1,12.31-12.19c.93-.79,4-.22,5.16.77.94.78,1.35,3.87.61,4.72-3.8,4.35-8,8.33-12.19,12.35C86.4,174.21,85.39,174.23,84.92,174.38Z"/><path d="M37.19,99.23a5.78,5.78,0,0,1-.9,2.29A163.56,163.56,0,0,1,24.61,113c-1,.89-4.41.79-5.16-.12-1-1.27-1.55-4.5-.67-5.56A96.41,96.41,0,0,1,30.27,95.68C33.08,93.27,37,95.27,37.19,99.23Z"/><path d="M84.93,114.11c-3.62,0-6.07-3.78-4-6.34A111.11,111.11,0,0,1,93.24,95.45c.9-.79,3.79-.48,4.87.41s1.84,3.9,1.2,4.63c-4,4.61-8.46,8.85-12.82,13.16C86.09,114.05,85.25,114,84.93,114.11Z"/><path d="M52.79,144.45c-1-.71-2.64-1.34-3.07-2.46-.51-1.31-.55-3.57.27-4.49a117.77,117.77,0,0,1,11.53-11.58c1-.9,4.15-.81,5.19.1s1.72,4.22,1,5.13c-3.71,4.4-7.93,8.38-12.06,12.42C55.09,144.07,54.08,144.07,52.79,144.45Z"/><path d="M84.63,124.26a26,26,0,0,1,3.6,2.39c3.35,3.21,6.88,6.31,9.75,9.93,1.1,1.38.6,4,.83,6.09-2.22.05-5.15,1-6.51,0a75,75,0,0,1-10.59-10.47,6,6,0,0,1-.75-4.93C81.34,126,83.24,125.32,84.63,124.26Z"/><path d="M33.29,205.16c-1.44-.74-2.64-1.06-3.42-1.81a113.73,113.73,0,0,1-10.47-10.63c-1.07-1.33-.38-4.07-.49-6.16,2.21.08,5.08-.69,6.51.41A72.61,72.61,0,0,1,35.65,197.1a6.22,6.22,0,0,1,1,4.91C36.36,203.26,34.5,204.11,33.29,205.16Z"/><path d="M68.9,189.14c-.82,1.56-1.2,2.9-2,3.8A102.38,102.38,0,0,1,56.59,203a6.49,6.49,0,0,1-6,.31c-2.53-1.57-2.05-4.29,0-6.39,3.34-3.45,6.62-7,10.23-10.14a6.24,6.24,0,0,1,4.87-1.11C66.92,186,67.77,187.85,68.9,189.14Z"/><path d="M68.53,110.45c-.65.89-1.27,2.6-2.38,3-1.33.5-3.61.48-4.54-.35a118.35,118.35,0,0,1-11.5-11.65c-.88-1-.69-3.93.17-5.19.7-1,3.9-1.78,4.65-1.12,4.56,4,8.76,8.47,13,12.84C68.33,108.4,68.26,109.25,68.53,110.45Z"/><path d="M115.35,154.71c1.35.52,2.48.64,3.12,1.26A163.2,163.2,0,0,1,130,167.59c.88,1,.75,4.39-.17,5.14-1.26,1-4.48,1.51-5.54.63a107.3,107.3,0,0,1-11.63-11.47c-.84-.94-.84-3.21-.36-4.55C112.65,156.22,114.31,155.54,115.35,154.71Z"/><path d="M182.79,89.16c1.14,1.66,3.17,3.33,3.13,5,0,1.42-2.36,3.83-3.74,3.88s-3.93-2.14-4.07-3.55c-.16-1.63,1.73-3.47,2.73-5.21Z"/></g></g></svg>