<svg id="Layer_1" data-name="Layer 1" xmlns="http://www.w3.org/2000/svg" viewBox="0 0 174.75 176.25"><defs><style>.cls-1{fill:#fff;}</style></defs><title>interlock2</title><path class="cls-1" d="M163.5,162.5H338.25q0,88.12,0,176.25H163.5Q163.5,250.63,163.5,162.5Zm171,88.5q0-38.43,0-76.86c0-5.6-1.52-7.14-7.06-7.14H173.36c-5.27,0-6.86,1.62-6.86,7q0,77,0,154.09c0,5.35,1.59,7,6.86,7H327.45c5.52,0,7.05-1.56,7.06-7.15Q334.51,289.43,334.51,251Z" transform="translate(-163.5 -162.5)"/><path d="M334.51,251q0,38.43,0,76.86c0,5.59-1.53,7.15-7.06,7.15H173.36c-5.28,0-6.86-1.61-6.86-7q0-77,0-154.09c0-5.34,1.59-7,6.86-7H327.45c5.53,0,7.05,1.54,7.06,7.14Q334.51,212.57,334.51,251Zm-76.19,0,18.5,18.62,44.92-44.87-18.4-18.6Zm-7.91-7.83L268.81,225l-44.88-45.15-18.55,18.3Zm-7.8,8-18.14-18.4-45,44.92,18.21,18.48Zm52.87,53L250.7,259.4l-18.42,17.81L277,322.28ZM183.86,325.2c12.66,0,24.75,0,36.84,0a3.14,3.14,0,0,0,2-.75c6.94-6.77,13.82-13.6,20.1-19.8L224,285.12Zm140.53-7.92a3.83,3.83,0,0,0,.3-.89c0-7.87-.61-15.79.17-23.58.95-9.48-1.59-16.72-9.24-22.67-4.44-3.46-7.88-8.2-11.27-11.84l-19.58,19.22ZM317.22,176.8c-12.71,0-24.8,0-36.88,0a3.15,3.15,0,0,0-2,.73c-6.94,6.77-13.84,13.6-20.19,19.87L277,217Zm-140.93,7.48c0,12.69,0,24.76,0,36.84a3.16,3.16,0,0,0,.7,2c6.76,7,13.58,13.85,19.94,20.31l19.49-19ZM237.35,177l12.78,12.94L263.49,177Zm-60.72,60.44v26.8l13.42-13.1Zm147.91.13-13.35,13,13.35,13.54ZM263.31,325l-12.65-13.09L236.91,325ZM197,190.2l13.78-13.1H184.17ZM324.46,212V185.06l-13.31,13.23ZM176.61,289.84v26.84l13.24-13Zm112.87,35h26.67l-12.89-13.42Z" transform="translate(-163.5 -162.5)"/><path class="cls-1" d="M258.32,250.95l45-44.85,18.4,18.6-44.92,44.87Z" transform="translate(-163.5 -162.5)"/><path class="cls-1" d="M250.41,243.12l-45-44.93,18.55-18.3L268.81,225Z" transform="translate(-163.5 -162.5)"/><path class="cls-1" d="M242.62,251.09l-44.95,45-18.21-18.48,45-44.92Z" transform="translate(-163.5 -162.5)"/><path class="cls-1" d="M295.49,304.11,277,322.28l-44.76-45.07L250.7,259.4Z" transform="translate(-163.5 -162.5)"/><path class="cls-1" d="M183.86,325.2,224,285.12l18.79,19.5c-6.28,6.2-13.16,13-20.1,19.8a3.14,3.14,0,0,1-2,.75C208.61,325.22,196.52,325.2,183.86,325.2Z" transform="translate(-163.5 -162.5)"/><path class="cls-1" d="M324.39,317.29l-39.62-39.77,19.58-19.22c3.4,3.64,6.83,8.38,11.27,11.84,7.65,6,10.19,13.19,9.24,22.67-.78,7.79-.16,15.72-.17,23.58A3.83,3.83,0,0,1,324.39,317.29Z" transform="translate(-163.5 -162.5)"/><path class="cls-1" d="M317.22,176.8,277,217l-18.88-19.53c6.36-6.28,13.25-13.1,20.19-19.87a3.15,3.15,0,0,1,2-.73C292.43,176.78,304.51,176.8,317.22,176.8Z" transform="translate(-163.5 -162.5)"/><path class="cls-1" d="M176.29,184.28l40.16,40.17-19.49,19c-6.36-6.46-13.18-13.36-19.94-20.31a3.16,3.16,0,0,1-.7-2C176.28,209,176.29,197,176.29,184.28Z" transform="translate(-163.5 -162.5)"/><path class="cls-1" d="M237.35,177h26.14l-13.36,12.94Z" transform="translate(-163.5 -162.5)"/><path class="cls-1" d="M176.63,237.44l13.42,13.7-13.42,13.1Z" transform="translate(-163.5 -162.5)"/><path class="cls-1" d="M324.55,237.57v26.57L311.2,250.6Z" transform="translate(-163.5 -162.5)"/><path class="cls-1" d="M263.31,325h-26.4l13.75-13.09Z" transform="translate(-163.5 -162.5)"/><path class="cls-1" d="M197,190.2l-12.87-13.1h26.65Z" transform="translate(-163.5 -162.5)"/><path class="cls-1" d="M324.46,212l-13.31-13.68,13.31-13.23Z" transform="translate(-163.5 -162.5)"/><path class="cls-1" d="M176.61,289.84l13.24,13.88-13.24,13Z" transform="translate(-163.5 -162.5)"/><path class="cls-1" d="M289.49,324.88l13.79-13.42,12.89,13.42Z" transform="translate(-163.5 -162.5)"/></svg>