<svg height="511pt" viewBox="-19 1 511 511.9995" width="511pt" xmlns="http://www.w3.org/2000/svg"><path d="m456.554688 23.800781h-58.375c-4.144532 0-7.5 3.355469-7.5 7.5 0 4.140625 3.355468 7.5 7.5 7.5h58.375c1.378906 0 2.5 1.121094 2.5 2.5v293.859375c0 4.140625 3.359374 7.5 7.5 7.5 4.144531 0 7.5-3.359375 7.5-7.5v-293.859375c0-9.652343-7.847657-17.5-17.5-17.5zm0 0"/><path d="m466.554688 360.320312c-4.140626 0-7.5 3.355469-7.5 7.5v101.167969c0 15.445313-12.5625 28.011719-28.007813 28.011719s-28.007813-12.566406-28.007813-28.011719v-166.824219c0-23.714843-19.296874-43.007812-43.011718-43.007812s-43.007813 19.292969-43.007813 43.007812v50.730469c0 15.445313-12.566406 28.007813-28.007812 28.007813-15.445313 0-28.011719-12.5625-28.011719-28.007813v-37.4375l38.175781-38.179687c5.210938-5.207032 6.964844-12.5625 5.316407-19.238282l92.007812-92.007812c7.910156-7.910156 7.910156-20.785156 0-28.695312l-98.539062-98.535157h67.554687c4.144531 0 7.5-3.359375 7.5-7.5 0-4.144531-3.355469-7.5-7.5-7.5h-82.554687l-17.863282-17.867187c-7.914062-7.910156-20.785156-7.910156-28.695312 0l-92 91.996094c-1.585938-.390626-3.222656-.617188-4.902344-.617188-5.417969 0-10.515625 2.109375-14.347656 5.941406l-39.792969 39.796875c-7.910156 7.910157-7.910156 20.78125 0 28.691407l52.773437 52.777343c-23.171874 22.632813-50.363281 43.210938-80.90625 61.191407-8.882812 5.230468-17.351562 11.847656-25.175781 19.667968-14.109375 14.113282-24.398437 30.523438-28.96875 46.210938-5.019531 17.242187-2.671875 31.855468 6.617188 41.144531 6.195312 6.195313 14.699219 9.226563 24.519531 9.226563 14.375-.003907 31.5625-6.503907 48.410156-19.078126 3.316406-2.480468 4-7.179687 1.523438-10.496093-2.480469-3.320313-7.179688-4.003907-10.496094-1.523438-21.441406 16-43.875 20.738281-53.351562 11.265625-5.164063-5.167968-6.191407-14.765625-2.820313-26.34375 3.875-13.304687 12.816406-27.4375 25.175781-39.796875 6.925782-6.925781 14.386719-12.765625 22.175782-17.347656 31.640624-18.628906 59.839843-39.988281 83.902343-63.511719l18.566407 18.5625c-23.527344 24.066406-44.882813 52.265625-63.511719 83.90625-2.328125 3.953125-5.066407 7.933594-8.144531 11.828125-2.566407 3.25-2.011719 7.96875 1.238281 10.535157 1.375 1.085937 3.015625 1.613281 4.644531 1.613281 2.214844 0 4.410156-.976563 5.890625-2.851563 3.5-4.429687 6.628906-8.976562 9.296875-13.515625 17.984375-30.546875 38.5625-57.738281 61.195312-80.910156l52.773438 52.773437c3.832031 3.835938 8.925781 5.945313 14.347656 5.945313.324219 0 .644532-.03125.964844-.046875v29.925781c0 23.714844 19.296875 43.007813 43.011719 43.007813 23.714843 0 43.007812-19.292969 43.007812-43.007813v-50.730469c0-15.441406 12.566407-28.007812 28.011719-28.007812 15.441406 0 28.007812 12.5625 28.007812 28.007812v166.824219c0 23.71875 19.292969 43.011719 43.007813 43.011719 23.71875 0 43.011719-19.292969 43.011719-43.011719v-101.167969c-.003906-4.144531-3.359375-7.5-7.503906-7.5zm-219.546876-343.78125c2.0625-2.0625 5.417969-2.0625 7.480469 0l131.402344 131.40625c2.0625 2.058594 2.0625 5.417969 0 7.476563l-89.9375 89.9375-35.082031-35.082031 15.195312-15.195313c2.929688-2.933593 2.929688-7.679687 0-10.609375-2.929687-2.925781-7.679687-2.925781-10.605468 0l-15.199219 15.195313-53.117188-53.117188 15.199219-15.195312c2.929688-2.925781 2.929688-7.675781 0-10.605469-2.929688-2.925781-7.679688-2.929688-10.605469 0l-15.199219 15.195312-8.082031-8.082031 59.8125-59.8125c2.929688-2.933593 2.929688-7.679687 0-10.609375-2.929687-2.929687-7.679687-2.929687-10.605469 0l-59.816406 59.8125-10.777344-10.777344zm-5.710937 289.925782-145.332031-145.328125c-2.0625-2.0625-2.0625-5.417969 0-7.480469l39.796875-39.792969c1-1 2.328125-1.550781 3.738281-1.550781 1.414062 0 2.742188.550781 3.742188 1.550781l145.328124 145.328125c2.0625 2.0625 2.0625 5.417969 0 7.480469l-39.792968 39.792969c-1 1-2.328125 1.550781-3.742188 1.550781-1.414062 0-2.738281-.550781-3.738281-1.550781zm0 0"/><path d="m148.273438 174.820312c-2.929688-2.929687-7.679688-2.929687-10.609376 0-2.929687 2.929688-2.929687 7.675782 0 10.605469l79.34375 79.34375c1.464844 1.460938 3.382813 2.195313 5.304688 2.195313 1.917969 0 3.835938-.734375 5.300781-2.195313 2.929688-2.933593 2.929688-7.679687 0-10.609375zm0 0"/><path d="m424.019531 182.277344h-.078125c-4.144531 0-7.460937 3.355468-7.460937 7.5 0 4.144531 3.394531 7.5 7.539062 7.5s7.5-3.355469 7.5-7.5c0-4.144532-3.355469-7.5-7.5-7.5zm0 0"/><path d="m430.199219 202.777344c-4.144531.054687-7.417969 3.453125-7.367188 7.59375.050781 4.109375 3.4375 7.40625 7.535157 7.40625h.097656c4.140625-.054688 7.457031-3.453125 7.40625-7.59375-.050782-4.109375-3.398438-7.40625-7.5-7.40625-.03125 0-.0625 0-.09375 0zm0 0"/><path d="m383.648438 225.882812c-4.144532 0-7.460938 3.355469-7.460938 7.5 0 4.140626 3.394531 7.5 7.539062 7.5 4.144532 0 7.5-3.359374 7.5-7.5 0-4.144531-3.355468-7.5-7.5-7.5zm0 0"/></svg>