<?xml version="1.0" encoding="iso-8859-1"?>
<!-- Generator: Adobe Illustrator 19.0.0, SVG Export Plug-In . SVG Version: 6.00 Build 0)  -->
<svg version="1.1" id="Capa_1" xmlns="http://www.w3.org/2000/svg" xmlns:xlink="http://www.w3.org/1999/xlink" x="0px" y="0px"
	 viewBox="0 0 511.318 511.318" style="enable-background:new 0 0 511.318 511.318;" xml:space="preserve">
<g>
	<g>
		<path d="M207.723,315.581H95.872c-2.208,0-3.995,1.795-3.995,3.995v31.957c0,2.216,1.787,3.995,3.995,3.995h111.851
			c2.208,0,3.995-1.779,3.994-3.995v-31.957C211.717,317.376,209.931,315.581,207.723,315.581z M203.728,347.539H99.867v-23.968
			h103.861V347.539z"/>
	</g>
</g>
<g>
	<g>
		<path d="M415.447,107.855H303.595c-2.207,0-3.994,1.787-3.994,3.995s1.787,3.994,3.994,3.994h111.851
			c2.208,0,3.995-1.786,3.995-3.994S417.655,107.855,415.447,107.855z"/>
	</g>
</g>
<g>
	<g>
		<path d="M418.269,109.025c-1.56-1.561-4.087-1.561-5.648,0L204.898,316.752c-1.56,1.56-1.56,4.087,0,5.648
			c0.781,0.78,1.803,1.171,2.825,1.171c1.022,0,2.044-0.391,2.825-1.171l207.721-207.727
			C419.83,113.113,419.829,110.586,418.269,109.025z"/>
	</g>
</g>
<g>
	<g>
		<path d="M418.269,140.99c-1.56-1.561-4.087-1.561-5.648,0L204.898,348.709c-1.56,1.56-1.56,4.088,0,5.649
			c0.781,0.779,1.803,1.17,2.825,1.17c1.022,0,2.044-0.39,2.823-1.17l207.723-207.72C419.83,145.078,419.829,142.551,418.269,140.99
			z"/>
	</g>
</g>
<g>
	<g>
		<path d="M306.419,109.025c-1.56-1.561-4.088-1.561-5.649,0L93.048,316.752c-1.561,1.56-1.561,4.087,0,5.648
			c0.78,0.78,1.802,1.171,2.824,1.171c1.022,0,2.045-0.391,2.825-1.171l207.722-207.727
			C307.979,113.113,307.979,110.586,306.419,109.025z"/>
	</g>
</g>
<g>
	<g>
		<path d="M415.446,107.854c-2.208,0-3.995,1.787-3.995,3.995v31.965c0,2.208,1.787,3.995,3.995,3.995s3.994-1.787,3.994-3.995
			v-31.965C419.44,109.641,417.654,107.854,415.446,107.854z"/>
	</g>
</g>
<g>
	<g>
		<path d="M274.088,252.514c-0.219-0.172-21.042-15.882-45.225,8.316l-55.922,55.922l5.649,5.648l55.921-55.925
			c19.065-19.056,34.075-8.114,34.677-7.658c1.748,1.369,4.26,1.045,5.602-0.698C276.148,256.376,275.835,253.868,274.088,252.514z"
			/>
	</g>
</g>
<g>
	<g>
		<path d="M230.521,156.969c-1.561-1.561-4.088-1.561-5.649,0l-23.968,23.968c-1.561,1.56-1.561,4.088,0,5.649
			c0.78,0.78,1.802,1.17,2.824,1.17c1.023,0,2.044-0.39,2.825-1.17l23.968-23.969C232.081,161.058,232.081,158.53,230.521,156.969z"
			/>
	</g>
</g>
<g>
	<g>
		<path d="M115.846,363.518H3.995c-2.208,0-3.994,1.794-3.994,3.995v31.957c0,2.216,1.786,3.994,3.994,3.994h111.851
			c2.208,0,3.995-1.779,3.995-3.994v-31.957C119.841,365.312,118.054,363.518,115.846,363.518z M111.851,395.474H7.99v-23.968
			h103.861V395.474z"/>
	</g>
</g>
<g>
	<g>
		<path d="M239.696,155.775h-27.979c-2.208,0-3.994,1.786-3.994,3.994s1.786,3.995,3.994,3.995h27.979
			c2.208,0,3.995-1.787,3.995-3.995S241.904,155.775,239.696,155.775z"/>
	</g>
</g>
<g>
	<g>
		<path d="M150.378,364.938c-1.56-1.561-4.087-1.561-5.648,0l-31.708,31.708c-1.561,1.56-1.561,4.087,0,5.648
			c0.78,0.78,1.803,1.17,2.824,1.17c1.022,0,2.044-0.39,2.824-1.17l31.708-31.708C151.939,369.026,151.938,366.499,150.378,364.938z
			"/>
	</g>
</g>
<g>
	<g>
		<path d="M214.542,156.961c-1.56-1.561-4.087-1.561-5.648,0L1.171,364.688c-1.561,1.56-1.561,4.088,0,5.649
			c0.78,0.779,1.802,1.17,2.824,1.17s2.044-0.391,2.824-1.17l207.723-207.728C216.103,161.05,216.103,158.522,214.542,156.961z"/>
	</g>
</g>
<g>
	<g>
		<path d="M299.601,363.518H187.75c-2.208,0-3.995,1.794-3.995,3.995v31.957c0,2.216,1.787,3.994,3.995,3.994H299.6
			c2.208,0,3.995-1.779,3.995-3.994v-31.957C303.595,365.312,301.809,363.518,299.601,363.518z M295.606,395.474H191.744v-23.968
			h103.862V395.474z"/>
	</g>
</g>
<g>
	<g>
		<path d="M507.323,155.791h-91.838c-2.209,0-3.995,1.786-3.995,3.994c0,2.208,1.786,3.995,3.995,3.995h91.838
			c2.208,0,3.994-1.787,3.994-3.995S509.531,155.791,507.323,155.791z"/>
	</g>
</g>
<g>
	<g>
		<path d="M510.147,156.961c-1.56-1.561-4.087-1.561-5.648,0L296.776,364.688c-1.561,1.56-1.561,4.088,0,5.649
			c0.78,0.779,1.803,1.17,2.824,1.17c1.023,0,2.044-0.391,2.825-1.17l207.722-207.728
			C511.708,161.05,511.707,158.522,510.147,156.961z"/>
	</g>
</g>
<g>
	<g>
		<path d="M510.147,188.926c-1.56-1.56-4.087-1.56-5.648,0l-207.723,207.72c-1.561,1.56-1.561,4.087,0,5.648
			c0.78,0.78,1.803,1.17,2.824,1.17c1.023,0,2.044-0.39,2.825-1.17l207.722-207.719
			C511.708,193.015,511.708,190.487,510.147,188.926z"/>
	</g>
</g>
<g>
	<g>
		<path d="M507.323,155.791c-2.208,0-3.994,1.786-3.994,3.994v31.966c0,2.208,1.786,3.994,3.994,3.994s3.994-1.786,3.994-3.994
			v-31.966C511.317,157.577,509.531,155.791,507.323,155.791z"/>
	</g>
</g>
<g>
	<g>
		<path d="M262.478,332.731c-1.56-1.561-4.088-1.561-5.649,0l-31.957,31.957c-1.561,1.56-1.561,4.088,0,5.649
			c0.78,0.779,1.803,1.17,2.824,1.17c1.023,0,2.045-0.391,2.824-1.17l31.958-31.958C264.039,336.82,264.038,334.292,262.478,332.731
			z"/>
	</g>
</g>
<g>
	<g>
		<path d="M326.393,308.763c-1.56-1.561-4.088-1.561-5.649,0l-55.925,55.909c-1.561,1.56-1.561,4.088,0,5.649
			c0.779,0.779,1.802,1.17,2.824,1.17c1.022,0,2.044-0.391,2.824-1.17l55.926-55.91
			C327.953,312.851,327.953,310.324,326.393,308.763z"/>
	</g>
</g>
<g>
	<g>
		<path d="M429.927,157.305c-1.56-1.561-4.087-1.557-5.648-0.004l-34.127,34.122l5.648,5.648l34.127-34.114
			C431.488,161.397,431.487,158.866,429.927,157.305z"/>
	</g>
</g>
<g>
	<g>
		<path d="M334.397,109.025c-1.56-1.561-4.087-1.561-5.648,0l-39.954,39.962c-1.561,1.56-1.561,4.087,0,5.648
			c0.78,0.78,1.802,1.171,2.824,1.171c1.022,0,2.044-0.39,2.824-1.171l39.954-39.962
			C335.958,113.113,335.957,110.586,334.397,109.025z"/>
	</g>
</g>
<g>
	<g>
		<path d="M374.329,109.025c-1.56-1.561-4.087-1.561-5.648,0l-79.886,79.885c-1.561,1.56-1.561,4.088,0,5.649
			c0.78,0.78,1.802,1.17,2.824,1.17c1.022,0,2.044-0.389,2.824-1.17l79.886-79.886C375.89,113.113,375.889,110.586,374.329,109.025z
			"/>
	</g>
</g>
<g>
</g>
<g>
</g>
<g>
</g>
<g>
</g>
<g>
</g>
<g>
</g>
<g>
</g>
<g>
</g>
<g>
</g>
<g>
</g>
<g>
</g>
<g>
</g>
<g>
</g>
<g>
</g>
<g>
</g>
</svg>
